<svg id="Layer_1" data-name="Layer 1" xmlns="http://www.w3.org/2000/svg" viewBox="0 0 510.36 503.32"><defs><style>.cls-1{fill:#39b54a;stroke:#39b54a;stroke-miterlimit:10;stroke-width:0.25px;}</style></defs><path class="cls-1" d="M42.58,404.7c1.65-8,3.41-16.05,4.92-24.12,1.8-9.6,3.34-19.25,5.1-28.86,2.11-11.52,12.24-18.48,23.83-16.43,19.4,3.45,38.78,7,58.22,10.27a6.09,6.09,0,0,0,5-2.23c3.95-6.3,7.46-12.87,11.38-19.79-10.65-12.71-21.5-25.65-32.34-38.6-3-3.56-6.1-7-8.89-10.73-6.22-8.29-5.62-19.34,2.17-26.14q22.32-19.47,45.37-38.1c8.53-6.87,20.15-4.7,27.84,4.4,12.32,14.58,24.64,29.16,36.75,43.91,2.3,2.8,4.09,3.44,7.45,1.93a122.45,122.45,0,0,1,15.84-5.78c3.23-1,4.42-2.29,4.39-5.8-.2-18.59.4-37.2-.25-55.77-.54-15.66,10.61-24,23.18-23.43,17.23.77,34.52.18,51.79.2,13.1,0,21.21,7.8,21.32,20.9.15,18.92,0,37.85,0,56.77v5.24c7.66,2.9,14.86,5.81,22.23,8.25,1.24.41,3.67-.8,4.69-2q18.27-21.39,36.24-43c9.77-11.74,20.69-12.95,32.32-3.27q19.33,16.08,38.54,32.32c12.18,10.3,13,20.88,2.79,33.06l-38.33,45.66c3.94,7,7.65,13.8,11.72,20.42.67,1.09,3,1.94,4.38,1.71q28.91-4.91,57.74-10.19c12.45-2.29,22.37,4.37,24.67,16.95q4.89,26.9,9.64,53.8c2.11,12-4.91,21.9-17.32,24.15q-28.61,5.19-57.26,10c-3,.49-4.33,1.49-4.75,4.48-.85,6.06-1.83,12.12-3.13,18.09-.66,3,.2,4.36,2.78,5.82,16.43,9.32,32.75,18.85,49.11,28.29,12.87,7.43,15.76,18.11,8.33,31q-12.9,22.41-25.87,44.79c-7,12.07-17.81,15-30,8q-26.5-15.21-53-30.59l-20,16.77c2,5.66,4.19,11.68,6.37,17.69,4.9,13.54,9.88,27,14.71,40.62,4.35,12.2-.44,22.68-12.57,27.18q-25.38,9.4-50.88,18.45c-12.12,4.32-22.56-.64-27.05-12.85-6.64-18-13.22-36.06-19.61-54.16-1.14-3.22-2.64-4.33-6.07-4.13a158.17,158.17,0,0,1-17.42,0c-3.25-.17-4.6,1-5.66,4-6.32,17.78-12.83,35.49-19.31,53.22-5.05,13.79-15,18.49-28.7,13.53q-24.74-9-49.47-18c-12.05-4.42-17.09-15-12.76-27.11,7-19.46,14.09-38.88,21.18-58.39l-20-16.81q-26,15-52.07,30c-13.67,7.84-23.73,5.11-31.63-8.53Q77.62,549.77,65,527.79c-7.25-12.61-4.28-23.31,8.36-30.6,16.38-9.44,32.68-19,49.13-28.3,2.85-1.61,3.47-3.26,2.83-6.27-1.22-5.83-2.2-11.71-3-17.6-.41-2.89-1.53-4.15-4.61-4.66-19-3.14-37.83-6.71-56.79-9.81-9.13-1.5-14.59-6.95-18.25-14.89ZM264.71,224.77q0,15.93,0,31.87c0,6.52-1.65,8.38-7.64,10.4-9.55,3.22-19.07,6.57-28.45,10.24-6.81,2.66-8.5,2.57-13.29-3.13q-20.52-24.37-41-48.82c-4.22-5-5.59-5.15-10.55-1q-19.26,16.15-38.5,32.35c-5.62,4.75-5.6,5.63-.87,11.27q20.67,24.58,41.31,49.17c2.88,3.41,3.83,6.77,1.42,10.86-5.86,10-11.61,20-17.39,30.09-1.95,3.36-4.76,5-8.69,4.32-5.87-1-11.73-2.12-17.6-3.14-16.31-2.85-32.64-5.64-48.94-8.55-4-.72-6.37.54-7.09,4.71-3,17.14-6.06,34.25-9,51.39-1.1,6.51-.16,7.67,6.06,8.76,21.2,3.72,42.4,7.48,63.62,11.08,5.16.88,7.69,3.45,8.43,8.75,1.38,10,3.08,19.95,5.12,29.82,1.57,7.62,1.1,9.55-5.58,13.42q-27.76,16-55.54,32.06c-4.81,2.79-5.23,4.31-2.45,9.15Q91,542.26,104,564.64c3.06,5.29,4.49,5.64,9.88,2.54,18.54-10.66,37-21.37,55.6-32,6.29-3.6,8.23-3.05,13.63,1.76,7.18,6.38,14.44,12.7,22,18.61,6.1,4.77,7.05,6.68,4.45,13.82Q198.77,599,188,628.65c-2.31,6.36-1.62,7.84,4.5,10.07q23.34,8.49,46.66,17c6.88,2.5,8.12,1.9,10.63-5,7.25-19.91,14.6-39.78,21.69-59.74,1.84-5.2,4.9-7.2,10.41-7,10.09.35,20.21.23,30.31.1,8-.11,9.33.61,12.06,8.12q10.77,29.64,21.52,59.28c2.17,6,3.6,6.63,9.68,4.43q22.89-8.26,45.74-16.6c8.24-3,8.59-3.8,5.66-11.87-7.19-19.75-14.33-39.52-21.6-59.24-1.82-4.92-.7-8.37,3.49-11.64,8-6.21,15.72-12.73,23.28-19.42,5.55-4.92,7.7-5.48,14-1.83q27.57,15.88,55.12,31.81c5.58,3.22,7,2.85,10.23-2.7q12.6-21.72,25.14-43.48c3.55-6.16,3.25-7.2-3-10.85-18.37-10.62-36.71-21.28-55.13-31.8-4.42-2.52-6.48-5.58-5.39-10.93,2.17-10.69,4.09-21.45,5.69-32.24.76-5.11,3.29-7.57,8.18-8.41,21.06-3.62,42.09-7.34,63.14-11,7-1.21,7.91-2.28,6.72-9.17q-4.16-24.24-8.61-48.42c-1.45-7.92-2.32-8.43-10.19-7L455.76,362c-6.2,1.09-8.14-.12-11.13-5.52Q437,342.79,429,329.4c-3.22-5.33-3.32-7.65.71-12.46q20.77-24.81,41.59-49.59c4-4.8,4-6.18-.84-10.22q-19.2-16.23-38.49-32.36c-5.66-4.76-6.73-4.64-11.6,1.17q-20.46,24.42-41,48.8c-4.13,4.9-6.27,5.09-12.14,2.83-9.55-3.69-19.19-7.2-28.9-10.46-6.27-2.11-7.83-3.84-7.83-10.75q0-31.87,0-63.75c0-6.43-1.21-7.74-7.39-7.76q-25.64,0-51.29,0c-5.71,0-7.07,1.39-7.09,7C264.69,202.86,264.71,213.81,264.71,224.77Z" transform="translate(-42.46 -169.28)"/><path class="cls-1" d="M203.8,504.27V479.15a5,5,0,0,0-1.13-.52c-18.28-2-24.39-14.06-15.24-30.06,6.51-11.37,13-22.72,19.65-34,8.67-14.8,25.44-14.76,34.15.08,6.71,11.44,13.29,22.95,19.9,34.44,8.91,15.48,2.64,28.39-15,30.91-.48.07-.94.24-1.83.48-.1,1.52-.27,3.11-.27,4.71,0,15.1.15,30.21-.13,45.32-.08,4.06,1.27,6,5,7.19,7,2.25,14,4.77,21.62,7.38V435.66c-1.41-.17-2.71-.28-4-.48C252.16,433,245.8,420,253,407.39c7-12.41,14.12-24.77,21.4-37,8.11-13.68,24.89-13.69,33.07,0,6.81,11.38,12.72,23.34,20.09,34.33,9.3,13.85,3.11,31.71-16.37,32.17V547.38c8.53-2,16.55-3.77,24.43-6,1-.29,1.9-3.08,1.91-4.72.13-20.25.08-40.51.08-60.76V392.3c-3.17-.54-6-.68-8.6-1.54-10.64-3.48-15.59-15.13-10.22-24.91,7.43-13.51,15.09-26.9,23.12-40.05,7.25-11.9,23.72-12.27,31.14-.48,8.38,13.32,16.26,27,23.64,40.89,6.32,11.91-1.52,25.3-14.92,26.72-1.14.12-2.28.28-3.79.47V517.6l1.2,1c6.57-7.27,13.75-14.09,19.54-21.93,5.58-7.54,9.82-16.08,14.46-24.28,2.67-4.71,5.84-6.5,10-5,4.9,1.73,6.42,6.24,3.83,11.91-11.46,25.09-28.59,45.43-51.76,60.39-28,18.07-58.66,27.17-92.06,24-36.54-3.43-66.61-20.23-90.55-47.74-24.18-27.79-37.15-60.27-37.16-97.25,0-36.5,13.72-67.77,38.5-94.34,3.68-3.95,8-4.45,11.39-1.53,3.57,3.07,3.73,7.65-.11,11.82-15.13,16.45-25.74,35.38-30.6,57.21-9.16,41.21,0,78.17,26.63,110.87a15.8,15.8,0,0,1,1.41,2.56ZM358,376.62v1.2c6.8,0,13.6.06,20.4,0,4.76-.05,6.1-2.16,3.76-6.29q-10.31-18.16-20.88-36.18c-2.45-4.19-4.8-4.22-7.23-.07Q343.63,353.06,333.43,371c-2.23,3.92-1.42,5.42,3.19,5.56C343.75,376.77,350.89,376.62,358,376.62ZM224.35,463.41v1.1c6.8,0,13.6.05,20.4,0,5.08,0,6.32-2.06,3.78-6.52q-10.2-17.93-20.63-35.73c-2.56-4.37-5-4.33-7.54.06q-10.16,17.38-20.15,34.88c-2.65,4.63-1.82,6.08,3.73,6.19C210.74,463.52,217.55,463.41,224.35,463.41Zm66.82-43.63V421c6.79,0,13.59,0,20.39,0,4.93,0,6.24-1.89,3.89-6.05q-10.41-18.36-21.1-36.57c-2.24-3.82-4.71-3.72-7,.2-7,12-13.94,24.07-20.88,36.12-1.85,3.22-1.08,5.07,2.84,5.08C276.59,419.79,283.88,419.78,291.17,419.78Zm62.33-27V534c8.87-3.33,8.87-3.33,8.87-11.84V392.78Zm-58.06,43.34h-8.69V547h8.69ZM219.65,479.6v33.86c0,7.89,1.15,9.52,9,12.49V479.6Z" transform="translate(-42.46 -169.28)"/><path class="cls-1" d="M439.91,421.12c-.94,8.39-1.72,16.8-2.88,25.16-.64,4.59-4.32,7.39-8.2,7-4.31-.49-7.08-3.94-6.71-8.86.55-7.27,1.91-14.5,2-21.76.47-57-35.74-106.15-90.41-122.48C297.2,289.24,262.63,294,230.15,314c-2.28,1.4-5.49,3.07-7.64,2.45-2.51-.73-5.8-3.67-6.06-6-.3-2.58,1.68-6.54,3.92-8.1a126.26,126.26,0,0,1,43.42-19c73.33-17.29,145.07,22.75,168.81,94.2A150.17,150.17,0,0,1,439.91,421.12Z" transform="translate(-42.46 -169.28)"/></svg>