<svg id="Layer_1" data-name="Layer 1" xmlns="http://www.w3.org/2000/svg" viewBox="0 0 372.28 312.7"><defs><style>.cls-1{fill:#39b54a;stroke:#39b54a;stroke-miterlimit:10;}</style></defs><path class="cls-1" d="M333.56,313.09v15.82c0,6.41-1.72,8.11-8.22,8.14h-3.53v24c1.69,0,3.27,0,4.85,0,4.74.07,6.86,2.12,6.88,6.83,0,8.73,0,17.47,0,26.21V397c4.17,0,8,0,11.83,0a23.87,23.87,0,0,1,9.23,46c-2.66,1-3.22,2.37-3.14,4.88.15,4.84,0,9.69,0,14.78h24.57c4-11,11.55-17.9,23.89-17.67,11.81.23,19,7,22.88,17.9h51.66c7.25,0,8.75,1.5,8.75,8.72q0,39.5,0,79c0,6.41-1.74,8.12-8.23,8.12-16.46,0-32.93,0-49.4,0-1.93,0-3,.31-3.86,2.42-4,10.11-12.28,15.66-22.78,15.59-10-.08-18.17-6-22.12-16.06-.22-.57-.52-1.12-.89-1.89-9.54,0-19.19-.67-28.69.25-5.78.56-11.28,3.74-17,5.44-11.94,3.58-24.06,7.69-36.59,6-11.51-1.56-23.2-3.91-34-8-13-4.92-26-3.13-39.08-3.53-.84,0-2.06,1.74-2.55,2.91-6.42,15.3-25.57,20-37.89,9-2.78-2.48-4.81-6-6.56-9.37-1-2-1.86-2.72-4-2.71-16.59.09-33.18.05-49.77,0-6,0-7.8-1.84-7.81-7.79q0-40.24,0-80.49c0-5.66,1.91-7.54,7.67-7.54H172.4c4.17-11.38,11.73-18.17,24.06-17.89,11.63.26,18.78,6.88,22.68,17.68H243.5V444.2c-5.35-1.81-10.23-4.71-13.52-9.72-5.14-7.84-5.83-16.13-1.56-24.46s11.33-12.71,20.75-13c4-.12,8,0,12.55,0v-8.18q0-9.92,0-19.84c0-6.17,1.76-7.9,8-7.93h3.65v-24c-1.61,0-3.3,0-5,0-4.49-.08-6.64-2.18-6.69-6.65-.05-5.6,0-11.2,0-17.3h-4.18c-14.59,0-29.18.05-43.78,0-13.93-.07-24.27-11-23.89-25.14.36-12.94,11.93-23.42,25.27-22.64a22.42,22.42,0,0,1,17.52,9.39,5.58,5.58,0,0,0,5.25,2.53c12-.1,24-.07,35.93,0a4.94,4.94,0,0,0,4.64-2.18c9.81-13.25,28.41-13.17,38.47-.1a6.06,6.06,0,0,0,4.14,2.16q18.51.26,37,0a6.15,6.15,0,0,0,4.11-2.22c6.95-8.76,17.94-12,28.12-8.08s16.07,13.9,15,25.4c-.9,10-9.17,18.67-19.8,20.63a28.37,28.37,0,0,1-5.22.27q-21.15,0-42.29,0ZM256,445a7.63,7.63,0,0,0-.24,1.12q0,50-.08,99.91c0,2,.71,2.9,2.53,3.43,7,2,14,4.55,21.08,6.17,6.4,1.47,13.07,3.09,19.5,2.72,12.82-.73,25.25-4,37.36-8.45,2.68-1,3.52-2.23,3.51-5.06-.11-32-.06-64.11-.07-96.17,0-1.19-.11-2.39-.17-3.67ZM124.22,475v71.45h47.47V475ZM471.06,546.6V475.15H423.59V546.6ZM297.73,432.94c15.7,0,31.4.05,47.1,0,7.27,0,12.69-5.28,12.68-12s-5.42-11.95-12.7-12q-47.28-.08-94.56,0a12,12,0,0,0-11.67,7.77c-3,8.16,2.82,16.12,12.06,16.17C266.34,433,282,432.94,297.73,432.94Zm-89.91,77.87c0-13.84.07-27.67,0-41.5-.05-7-5.31-12.35-11.86-12.41a12,12,0,0,0-12,12.21c-.1,27.79-.06,55.58,0,83.38a11.49,11.49,0,0,0,4.49,9.44c3.86,3,8.1,3.72,12.58,1.51,4.73-2.34,6.85-6.35,6.87-11.51C207.84,538.23,207.82,524.52,207.82,510.81Zm203.62.17c0-13.83.06-27.67,0-41.5-.05-7.24-5.4-12.67-12.08-12.58s-11.82,5.35-11.84,12.41c-.08,27.67,0,55.34,0,83a11.68,11.68,0,0,0,4.37,9.52c3.82,3,8,3.84,12.56,1.68,4.76-2.27,7-6.25,7-11.4C411.48,538.4,411.44,524.69,411.44,511ZM243.61,475.14H220v71.41h23.65ZM375.24,546.6V475.15H351.72V546.6Zm-53.8-173.34H274v23.53h47.47Zm-47.62-48.45h47.6V313.3h-47.6Zm12.09,12.41v23.52h23.52V337.22Zm-50.73-36.33h41.06l-3.12-11.54H238.34C237.24,293.36,236.23,297,235.18,300.89Zm122.08-11.54H322.17c-1.11,4.08-2.14,7.85-3.14,11.55h41.39c-.75-2-1.53-3.69-2-5.46S357.66,291.54,357.26,289.35ZM225.76,289a12,12,0,1,0-11.88,12.06A12.29,12.29,0,0,0,225.76,289Zm83.83.16a12,12,0,1,0-12,11.89A12.24,12.24,0,0,0,309.59,289.2Zm71.92-12a12,12,0,1,0,11.92,12A12.33,12.33,0,0,0,381.51,277.16Z" transform="translate(-111.5 -264.59)"/><path class="cls-1" d="M324.94,529.45c1.77,3.52,3.48,6.91,5.42,10.79-21.9,8.85-43.3,8.75-65.45.08l5.38-11C288.57,536.51,306.65,536.62,324.94,529.45Z" transform="translate(-111.5 -264.59)"/><path class="cls-1" d="M147.74,487.13v11.48H136.26V487.13Z" transform="translate(-111.5 -264.59)"/><path class="cls-1" d="M435.55,498.54V487.07h23.59v11.47Z" transform="translate(-111.5 -264.59)"/></svg>