<svg id="Layer_1" data-name="Layer 1" xmlns="http://www.w3.org/2000/svg" viewBox="0 0 408.84 408.9"><defs><style>.cls-1{fill:#39b54a;}</style></defs><path class="cls-1" d="M175.46,216.49c3.45,2.39,5,5.75,5.84,9.84,3.08,14.39,6.46,28.71,9.82,43,1,4.38.59,8.34-3.15,11.15-8.08,6.07-9.73,14-9.62,23.86.53,45.62.24,91.24.24,136.86v5.26h20c2.79,0,5.59-.07,8.38,0,5.17.17,8.73,3.36,8.9,7.86.15,4.2-3.11,7.48-8.1,8.14-.51.07-1,.16-2,.32v4.68c0,35.24.06,70.49,0,105.73-.05,25-15.6,44.7-39.72,50.72-29.81,7.44-61.1-15.15-62.37-45.84-.9-21.77-.42-43.61-.5-65.41,0-15,0-30.06,0-45.09v-4.94c-4.93.15-8-2-10-5.87V452c2.57-4.32,6.38-6,11.35-5.58,3.17.25,6.37.05,9.56.05h16.51v-5.26c0-45.19-.3-90.38.22-135.56.12-10.47-1.11-19.31-10.2-25.59a3.36,3.36,0,0,1-.56-.57,9.09,9.09,0,0,1-2.35-8.76q5.27-22.45,10.16-45c.86-4,2.49-7.19,6-9.29Zm-56,246.27V468q0,44.28,0,88.57c0,6.52-.18,13,.13,19.55,1.08,22.43,23.67,38.13,45.09,31.47,15.51-4.82,25.14-18.19,25.17-35.28q.09-53.07,0-106.13c0-1.14-.17-2.27-.26-3.43ZM143,232.45c-2.3,10.06-4,19.91-6.9,29.37-2.17,7-.88,11.9,4.8,16.16,4.77,3.58,5.88,8.51,5.86,14.4-.18,49.75-.1,99.5-.1,149.25v4.59h15.84v-5c0-47,.3-93.92-.22-140.88-.13-11.21,1.31-20.69,10.8-27.69a4.47,4.47,0,0,0,1.29-3.72q-3.67-17.11-7.8-34.13a3.85,3.85,0,0,0-2.85-2.27C157,232.35,150.19,232.45,143,232.45Z" transform="translate(-93.22 -216.49)"/><path class="cls-1" d="M321.55,237.77c0,9.64.14,19,0,28.41s-4.55,16.55-12.86,21c-15.41,8.25-34.46-2.8-34.9-20.31-.25-9.57-.05-19.15-.05-29.39a43.1,43.1,0,0,0-17.57,18.44c-11.42,22.49-4.27,48.28,17.14,61.64,4.34,2.71,6.09,5.93,6.08,11.07q-.21,91.81,0,183.64c0,6.41-2.17,10.17-7.47,13.56-27.91,17.84-28,60.06-.42,77.78.52.33,1.1.6,2.19,1.19,0-9.94-.09-19.33,0-28.71a23.63,23.63,0,0,1,17.35-22.72c14.6-4.35,30,6.5,30.41,21.73.28,9.68,0,19.37,0,29.75a43.57,43.57,0,0,0,17.62-18.5C350.47,564,343.4,538.2,322.25,525c-4.59-2.88-6.43-6.28-6.38-11.72.25-24,.08-47.91.13-71.86,0-6.89,5.83-11,11.42-8.18C330.89,435,332,438,332,441.82c-.07,20.1.18,40.19-.16,60.28-.11,6.37,1.39,10.48,6.67,15,37.09,31.53,25.54,91.37-20.33,107.21-7.85,2.71-12.52-.57-12.53-8.84,0-12.11,0-24.21,0-36.32a18.54,18.54,0,0,0-.66-5.1,7.64,7.64,0,0,0-14.58-.15,19.42,19.42,0,0,0-.7,5.49c-.06,12.24,0,24.48,0,36.73,0,7.46-5,10.92-12,8.29-22.28-8.43-37.06-23.8-41.6-47.43-4.82-25.06,3.54-45.81,23.26-61.85,2.87-2.32,4.12-4.43,4.11-8.18q-.19-86.22,0-172.46a6.92,6.92,0,0,0-3.06-6.26c-20.21-15.42-28.69-36.1-24.62-60.94,4-24.24,18.4-40.72,41.6-49.17,7.64-2.79,12.32.6,12.33,8.61,0,12.51-.05,25,0,37.52.05,7.33,5.64,11.62,11.36,8.79,3.7-1.82,4.62-5.22,4.62-9q0-18.57,0-37.13c0-8.2,4.93-11.6,12.56-8.66,22.1,8.51,36.65,23.94,41.09,47.39,4.7,24.89-3.57,45.57-23.16,61.54-2.95,2.4-4.36,4.55-4.28,8.46.28,12.9.15,25.82.07,38.72,0,4.56-2.65,7.69-6.53,8.27-4.19.63-7.95-1.54-9-5.44a18.76,18.76,0,0,1-.38-4.75c0-14.77.12-29.54-.09-44.31-.07-4.82,1.68-8,5.77-10.43,11.88-7.2,19.07-17.76,21.95-31.36,3.8-17.95-4.92-38.48-20.54-48A10,10,0,0,0,321.55,237.77Z" transform="translate(-93.22 -216.49)"/><path class="cls-1" d="M412.61,475.17c-4.83,0-9.07.05-13.32,0-5.83-.09-9-3.09-9-8.79q-.11-22.37,0-44.72c0-5.56,3.11-8.71,8.65-8.72q47.11-.07,94.22,0c5.74,0,8.81,3.16,8.83,9q.09,22.16,0,44.32c0,5.76-3.14,8.84-8.89,8.93-4.35.08-8.71,0-13.44,0v4.67q0,40.92,0,81.84c0,13.15-7.33,20.46-20.48,20.48-9.19,0-18.37.05-27.55,0-11.28-.08-19-7.81-19-19.14q-.06-41.52,0-83Zm73.24-46.1h-79.4v29.85h79.4Zm-57.3,117c11.85-11.85,22.94-22.93,34-34a3.36,3.36,0,0,0,1.07-2c.08-8.18.05-16.35.05-24.64-.68.16-1,.13-1.14.28Q446.14,502,429.81,518.35a4.34,4.34,0,0,0-1.2,2.74C428.51,529,428.55,537,428.55,546Zm35.13-10.29L433.1,566.2h26.75c2.39,0,3.81-1.1,3.82-3.57C463.7,553.37,463.68,544.11,463.68,535.74Zm-35-40.29,20.09-20H428.7Z" transform="translate(-93.22 -216.49)"/><path class="cls-1" d="M502,322.7c0,8.77-.11,17.55.05,26.32a9.42,9.42,0,0,1-5.09,9.15q-23,13.18-45.85,26.5a9.3,9.3,0,0,1-10.14-.1q-22.73-13.21-45.52-26.29a9.46,9.46,0,0,1-5.25-9q.18-26.33,0-52.65a9.46,9.46,0,0,1,5.24-9.05q22.82-13,45.52-26.28a9.54,9.54,0,0,1,10.48.09q22.55,13.14,45.18,26.08c3.73,2.13,5.52,5,5.43,9.35C501.88,305.41,502,314.05,502,322.7Zm-15.95.44c0-6.78-.1-13.57.05-20.35a4.25,4.25,0,0,0-2.56-4.34c-11.67-6.63-23.22-13.45-34.92-20a5.87,5.87,0,0,0-4.9-.05q-17.73,9.92-35.2,20.31a5.11,5.11,0,0,0-2.23,3.57q-.23,20.55,0,41.1a5.05,5.05,0,0,0,2.13,3.66q17.65,10.44,35.54,20.51a5.07,5.07,0,0,0,4.21.07q17.88-10.07,35.53-20.52a5.59,5.59,0,0,0,2.24-4C486.17,336.45,486.05,329.79,486.05,323.14Z" transform="translate(-93.22 -216.49)"/><path class="cls-1" d="M324.06,400a7.91,7.91,0,0,1,7.84,7.89,7.94,7.94,0,1,1-15.88-.23A7.87,7.87,0,0,1,324.06,400Z" transform="translate(-93.22 -216.49)"/><path class="cls-1" d="M132.24,530.58c0-14.76-.09-29.53,0-44.28.06-6.77,6.32-10.65,11.78-7.54,3.41,1.95,4.22,5.18,4.21,8.86,0,16.09,0,32.18,0,48.27,0,12.9,0,25.8,0,38.69,0,5.19-2.45,8.49-6.51,9.16-5.57.92-9.44-2.58-9.47-8.88C132.19,560.1,132.24,545.34,132.24,530.58Z" transform="translate(-93.22 -216.49)"/><path class="cls-1" d="M177,547.24c0,9.17,0,18.33,0,27.5-.05,5.28-2.74,8.6-7.06,9a7.66,7.66,0,0,1-8.84-7.08,11.69,11.69,0,0,1-.09-1.19q0-28.49,0-57a9.27,9.27,0,0,1,.87-3.81,7.76,7.76,0,0,1,8.61-4.25,8.08,8.08,0,0,1,6.4,7.68c.23,3.3.08,6.64.09,10Q177,537.67,177,547.24Z" transform="translate(-93.22 -216.49)"/><path class="cls-1" d="M161,487.9a7.7,7.7,0,0,1,7.56-8,8.05,8.05,0,0,1,8.33,7.75,8.42,8.42,0,0,1-8.11,8.15A8.1,8.1,0,0,1,161,487.9Z" transform="translate(-93.22 -216.49)"/><path class="cls-1" d="M446,348.39a25.46,25.46,0,0,1-25.44-25.67A25.79,25.79,0,0,1,446,297.26c13.9-.13,25.65,11.61,25.66,25.61A25.49,25.49,0,0,1,446,348.39Zm9.55-25.57a9.49,9.49,0,0,0-19,.15,9.49,9.49,0,0,0,19-.15Z" transform="translate(-93.22 -216.49)"/></svg>