<svg id="Layer_1" data-name="Layer 1" xmlns="http://www.w3.org/2000/svg" viewBox="0 0 533.28 533.21"><defs><style>.cls-1{fill:#fff;}</style></defs><path class="cls-1" d="M564.28,618.76c-2.45,7.88-3.91,16.25-7.52,23.57-14.28,29-37.93,44.9-70.35,45q-188.73.54-377.45.1c-45.82,0-81.65-39.48-77.66-85,2.78-31.69,25.33-59.29,56.06-67.87,5.25-1.46,6.57-3.59,6.41-8.77-.41-13.35-.17-26.72-.13-40.08,0-10.55,6.29-16.84,16.79-16.87q30.19-.06,60.39,0c10.14,0,16.44,6.41,16.48,16.64,0,15.06,0,30.13,0,45.5h63.56V509.1c0-8.33-.11-16.67,0-25a15.14,15.14,0,0,1,15.23-15.23q31.5-.19,63,0c8.85.05,15.31,6.67,15.38,15.6.12,13.54,0,27.08,0,40.61V531H408.1v-5.29c0-13.36,0-26.73,0-40.09,0-10.5,6.31-16.77,16.85-16.79q29.94-.06,59.87,0c10.78,0,16.91,6.29,16.94,17.24q0,21.35,0,42.69c0,2.38.09,4,3.16,4.84,32.95,9.54,52.69,31.12,58.6,65.08a4.56,4.56,0,0,0,.75,1.33Zm-392.46-56c10.27,14.71,15.53,30,15.51,47s-5.7,32.06-15.14,46.06H423.42C413.32,641.33,408.07,626,408.09,609s5.69-32.06,15.3-46.3ZM109,562.57c-27,1.22-46.48,20.89-46.35,46.93.14,27.43,21.18,46.88,47.09,46.47,27.61-.43,46.42-21.54,46.1-47C155.48,581.7,134.71,563.39,109,562.57Zm377.9,0c-24.56.4-46.49,17.64-47.29,46-.68,24.19,17,46.52,45.62,47.4,24.7.76,47-17.49,47.55-46C533.28,585.1,514.93,564.16,486.89,562.59ZM155.74,531.07V500.45H125.11v30.62Zm157.32,0V500.36H282.44v30.71Zm126.55-30.78V531h30.58V500.29Z" transform="translate(-31 -154.34)"/><path class="cls-1" d="M458.07,154.34c8.59,3.88,11.66,10.45,11.58,19.9-.35,39.73-.12,79.47-.16,119.2,0,38.44-24.16,68.89-61.56,77.83-11.71,2.79-23.39,1.65-35.13.15-29.2-3.74-58.43-7.32-87.64-11q-39.2-4.94-78.36-10c-6-.76-12-1.43-17.9-2.13-.57,6.58-.46,13.07-1.79,19.26-3.23,15-12.16,25.84-26.09,32.28-3,1.38-4.17,2.86-4,6.13.28,4.85.2,9.72,0,14.57a15.57,15.57,0,0,1-31.11,0c-.17-5.2.19-10.42-.19-15.6a6.33,6.33,0,0,0-2.92-4.49c-18.91-9.22-28.22-24.28-28.18-45.26,0-19.25,0-38.51,0-57.77,0-27.31,16.94-46,44.06-49.4,42.8-5.31,85.57-10.9,128.36-16.33,15.25-1.94,30.52-3.77,46.25-5.7v-28.3c0-7.63.42-15.3-.11-22.9-.68-9.6,2.63-16.47,11.54-20.42ZM344.72,185.8c-.07,1.37-.16,2.38-.17,3.39,0,34.69-.15,69.38.14,104.06A54.59,54.59,0,0,0,347.84,311c5.79,16,17.62,26.16,34.16,29.51,17.14,3.48,32.19-1.55,44.19-14.62,8.79-9.58,12.06-21.21,12.09-33.89.07-33.82,0-67.65,0-101.47V185.8Zm-31.64,71.86L183.44,274c7.37,14,3.91,28.49,5.23,42.5l135.14,17C308.88,309.11,314.71,283,313.08,257.66Zm-155.93,69c0-10.07.08-20.13,0-30.2s-6.8-17.19-15.72-17.15c-8.67,0-15.47,7.57-15.51,17.44q-.09,29.14,0,58.3c0,10.51,6.42,17.8,15.51,17.9s15.66-7.25,15.74-17.66C157.21,345.76,157.15,336.22,157.15,326.68Z" transform="translate(-31 -154.34)"/><path class="cls-1" d="M250.82,609.29a15.59,15.59,0,1,1-15.43-15.49A15.46,15.46,0,0,1,250.82,609.29Z" transform="translate(-31 -154.34)"/><path class="cls-1" d="M297.61,625a15.59,15.59,0,1,1,15.68-15.22A15.47,15.47,0,0,1,297.61,625Z" transform="translate(-31 -154.34)"/><path class="cls-1" d="M360.39,593.8a15.59,15.59,0,1,1-15.79,15.12A15.48,15.48,0,0,1,360.39,593.8Z" transform="translate(-31 -154.34)"/><path class="cls-1" d="M109.23,625a15.59,15.59,0,1,1,15.59-15.32A15.46,15.46,0,0,1,109.23,625Z" transform="translate(-31 -154.34)"/><path class="cls-1" d="M470.61,608.61A15.59,15.59,0,1,1,485.15,625,15.5,15.5,0,0,1,470.61,608.61Z" transform="translate(-31 -154.34)"/></svg>