<svg id="Layer_1" data-name="Layer 1" xmlns="http://www.w3.org/2000/svg" viewBox="0 0 508.75 508.58"><defs><style>.cls-1{fill:#fff;stroke:#fff;stroke-miterlimit:10;stroke-width:3px;}</style></defs><path class="cls-1" d="M550.51,470.33c-4,16.53-13.59,30.45-21.36,45.19-16.46,31.24-33.33,62.27-49.81,93.5a15.79,15.79,0,0,0-1.45,9.26c2.47,15.06,5.44,30,8.15,45.06,1.23,6.76-1.83,10.38-8.74,10.38q-81.71,0-163.41,0c-6.06,0-9-2.59-9-8.59-.07-38.5-.3-77,.14-115.5.21-18.22,7.89-33.58,20.84-46.46q49.53-49.26,98.83-98.75c15.83-15.81,31.16-18.06,51.29-7.32V254.37c-8.33,1.89-14.3,10.34-14.38,20.87-.12,15.47,0,30.94,0,46.4q0,22.47,0,44.92c0,5.84-2.67,9-7.42,9s-7.33-3.19-7.34-9q0-45.92,0-91.82c0-17.07,10.43-30.92,26.79-36.17a7.11,7.11,0,0,0,4.1-3.76c6.17-17.63,20-27.68,38-27,17.36.65,31.39,14.32,34,29.29.08.45.5.83.76,1.25ZM469.42,658.74a18.4,18.4,0,0,0,0-3.08c-2.32-12.92-4.54-25.87-7.13-38.74a15.77,15.77,0,0,1,1.62-11.31c21.88-40.65,43.6-81.38,65.52-122a52.07,52.07,0,0,0,6.36-25.47q-.15-104.67-.06-209.34c0-1.65.06-3.3-.05-4.94-1-14.76-14.76-24.54-28.59-20.35-9.66,2.93-15.82,12-15.83,23.64,0,59.08-.14,118.17.1,177.25.05,12.69-4.26,22.86-13.17,31.71q-49.4,49-98.52,98.39a23.26,23.26,0,0,1-4.07,3.57,7.37,7.37,0,0,1-10.2-10A22.85,22.85,0,0,1,369,544q27.39-27.43,54.81-54.82c15.25-15.25,30.55-30.45,45.71-45.77,7.87-8,9.11-18.48,3.57-27.54-7.63-12.5-24.52-13.94-35.64-2.86C404,446.36,370.65,479.86,337.13,513.14c-11.49,11.41-17.23,24.76-17.1,41,.25,33.24.07,66.49.09,99.73,0,1.58.18,3.16.28,4.84Z" transform="translate(-43.26 -166.65)"/><path class="cls-1" d="M310.51,168.15c7.2,1.46,14.58,2.33,21.58,4.46,55.19,16.76,88.83,53.58,98.42,110.38,12,71.1-38.79,140.06-110.29,151.84C247.83,446.75,180.09,400,165.66,328.1,151,255,201.43,182,274.78,170.1c3.36-.55,6.7-1.29,10.05-1.95ZM417.18,302.38c-.05-65.54-53.76-119.29-119.33-119.43s-119.74,53.88-119.7,119.56c0,65.5,53.79,119.29,119.33,119.44S417.24,368.05,417.18,302.38Z" transform="translate(-43.26 -166.65)"/><path class="cls-1" d="M119.15,254.31V396.65c4.52-1.74,8.91-4.06,13.58-5.11,14.18-3.18,26.24,1.22,36.39,11.35l55.17,55.16c15,15,29.94,30.1,45.06,45,14.38,14.17,21.18,31.31,21.14,51.38q-.09,54.06,0,108.12c0,9-2.13,11.17-10.91,11.17h-160c-9.25,0-11.58-3-9.85-12.25,2.75-14.68,5.51-29.37,7.94-44.11a13.42,13.42,0,0,0-1.36-7.89Q84.53,549.63,52.38,490a61.78,61.78,0,0,1-7.62-30.16q.24-106.63.09-213.27c0-20.26,12.66-35.72,31.6-38.66,17.87-2.77,34.63,8.22,41.07,26.68a7.13,7.13,0,0,0,4,3.87c16.66,5.33,27,19.08,27,36.53q0,45.91,0,91.83c0,5.86-3.18,9.16-8.16,8.71-4.22-.39-6.59-3.46-6.6-8.78,0-30,.18-59.91-.18-89.85A33.64,33.64,0,0,0,129.49,262c-1.9-3.54-6.06-5.87-9.21-8.73ZM275.23,658.73v-5.28c0-32.92-.21-65.83.09-98.74.16-16.64-5.63-30.27-17.41-41.91-26.35-26-52.43-52.32-78.62-78.5-7.45-7.44-14.77-15-22.39-22.29-10.16-9.68-26-8.36-33.79,2.57-6.63,9.36-5.4,20.67,3.4,29.49Q176.93,494.56,227.4,545c4.43,4.44,4.87,8.66,1.44,12.07s-7.8,2.8-12.07-1.47Q166.12,505,115.51,454.33c-7.82-7.83-11.5-17.22-11.47-28.4.15-51.84.07-103.68.06-155.52,0-8.39.2-16.79-.06-25.18-.47-15.43-14.05-25.76-28.37-21.78-9.93,2.76-16,11.56-16,23.32q0,105.66-.07,211.32a52,52,0,0,0,6.34,25.47Q98.65,544.29,131,605.23a20.66,20.66,0,0,1,2.28,9.72c-.11,4.21-1.48,8.38-2.24,12.58-1.86,10.3-3.68,20.6-5.57,31.2Z" transform="translate(-43.26 -166.65)"/><path class="cls-1" d="M297.62,316.3c17.28,0,34.56-.05,51.84,0a36.66,36.66,0,0,1,37,38.83,13.74,13.74,0,0,1-2.57,6.67c-41.4,60.21-130.28,60.4-172.19.57-3.34-4.76-3.29-9.57-2.55-14.53a36.86,36.86,0,0,1,36.66-31.54C263.06,316.25,280.34,316.3,297.62,316.3Zm.25,14.78c-17.11,0-34.22-.1-51.32,0-11.6.08-20.28,7.17-22.35,18.31a9.14,9.14,0,0,0,1.34,6.24c34,48.53,110.25,48.49,144.3-.08a9.1,9.1,0,0,0,1.26-6.25c-2.11-11.13-10.78-18.15-22.41-18.23C331.75,331,314.81,331.07,297.87,331.08Z" transform="translate(-43.26 -166.65)"/><path class="cls-1" d="M297.55,301.44a52.11,52.11,0,0,1-51.9-51.69c-.17-28.47,23.42-52,52.13-51.95a52.08,52.08,0,0,1,51.9,51.68C349.86,278,326.27,301.47,297.55,301.44Zm36.91-51.77a36.79,36.79,0,1,0-37,37A36.89,36.89,0,0,0,334.46,249.67Z" transform="translate(-43.26 -166.65)"/></svg>