<svg id="Layer_1" data-name="Layer 1" xmlns="http://www.w3.org/2000/svg" viewBox="0 0 514.89 514.87"><defs><style>.cls-1{fill:#24333f;}</style></defs><title>2</title><path class="cls-1" d="M514.89,248.33v35.19c-1.1,8.09-1.92,16.23-3.36,24.26-9.9,55.37-34.92,102.82-76.53,140.68C375.19,502.87,304.59,524,224.81,511.19c-58.44-9.4-107.74-37.17-146-82.39-57.06-67.42-74-144.6-51.44-230,4.23-16,11.2-31.35,17.19-47.78C32.23,138.75,19,125.68,5.89,112.47c-9.76-9.78-7.1-22.12,5.81-27,16.57-6.24,33.23-12.26,49.73-18.69A10.85,10.85,0,0,0,67,61.22q9.21-23.56,17.69-47.43C86.91,7.46,90.22,2.46,96.66,0h8c3.75,3,7.77,5.71,11.18,9.05C128,21,140,33.12,152.17,45.3c1.86-.89,3.5-1.66,5.13-2.45C206.66,19.1,258.3,12,312.16,21.93c45.16,8.34,84.91,28,119.11,58.56q63.54,56.79,79.54,140.67C512.5,230.16,513.54,239.27,514.89,248.33ZM68.81,174.67c-38.72,79.26-25.58,194.77,65.22,265,86.21,66.67,212.2,57.77,288-20.65,78.33-81,83.86-205.74,12.64-291.46-72.62-87.4-185.82-95.49-258.73-59.28a2.73,2.73,0,0,0,.29.93A10.17,10.17,0,0,0,178,71c10.35,7.51,12.75,17.42,8.89,29.24a10.77,10.77,0,0,0-.37,1.46c-1.24,7-2.46,14-3.87,22.08,25.7-14.73,52.32-22.29,80.77-22.76a165.15,165.15,0,0,1,141.44,75.13c42.59,65.61,33.88,150.24-21.13,206.32-53.31,54.36-139.17,64.75-203.58,24.56-32.82-20.48-56.35-48.77-69.19-85.29-16.83-47.82-11.93-94.07,12.66-139-2.12.26-3.58.38-5,.63-8.89,1.55-17.8,3-26.65,4.75-6.2,1.21-11.22-.7-15.45-5.09C73.92,180.47,71.55,177.66,68.81,174.67ZM182.44,161c11.79,11.73,23.35,23.1,34.72,34.66,2.32,2.35,3.87,2.46,6.72.71C241,186,259.58,182,279.27,185.4c45.6,7.77,74.75,48.81,67.69,94.67-6.94,45.09-53.36,76.51-97.84,66.21-55.79-12.92-81.6-73.55-52.28-123,1.51-2.56,1.22-3.93-.79-5.91-11-10.81-21.84-21.76-32.75-32.65-.68-.68-1.45-1.28-2.18-1.91-37.2,43.23-43.83,120.79,6.16,174.78,51,55.09,134.71,58.33,190.42,7.75,54.18-49.2,58.43-133.73,9.05-188.94C316.67,120.33,234.81,118.52,182.48,161Zm60.12,59.77c1.32,1.38,2.55,2.72,3.83,4,9.94,9.95,19.93,19.85,29.81,29.84,6.83,6.91,7.09,16.1.8,22.34s-15.41,5.91-22.34-1c-9.51-9.42-19-18.87-28.37-28.44-1.71-1.74-2.82-4.09-4.57-6.7-12.87,23.92-6.29,51.71,14.29,66.89a51.43,51.43,0,0,0,71.54-72.31c-15.28-20.3-43.13-26.68-65-14.67Zm-92-91.66c2.19-11.79,4.32-22.57,6.07-33.42.25-1.55-.93-3.81-2.15-5q-22.39-22.75-45-45.25c-.79-.79-1.68-1.46-3-2.6-3.69,9.81-7.26,19.11-10.58,28.5A4.65,4.65,0,0,0,97,75.26C114.55,93,132.2,110.68,150.6,129.14Zm-21.3,21.33C110.84,132.1,93.12,114.4,75.33,96.78a4.2,4.2,0,0,0-3.44-1.15c-9.52,3.37-19,7-28.39,10.47.25.83.25,1.23.44,1.43q23.87,23.94,47.87,47.85a5.8,5.8,0,0,0,4.44,1.16C107,154.7,117.59,152.64,129.26,150.47Z" transform="translate(0 0.05)"/></svg>