<svg id="Layer_1" data-name="Layer 1" xmlns="http://www.w3.org/2000/svg" viewBox="0 0 577.35 312.56"><defs><style>.cls-1{fill:#233340;}</style></defs><title>3</title><path class="cls-1" d="M577.39,157.3c-7.62,8.71-15,17.63-22.9,26.08-45.6,48.86-98.81,86.75-161.75,110-41.63,15.36-84.75,22.21-129.19,17.91-45-4.34-87.14-18.22-126.69-39.73A437.73,437.73,0,0,1,11.06,169.09c-3.27-3.86-6.29-7.94-9.41-11.92A11.28,11.28,0,0,0,0,155c14.62-15.52,28.63-31.68,44-46.44A414.39,414.39,0,0,1,158,30.3C189.85,15.63,223,5.8,258,1.82c59-6.73,114.45,5.52,167.29,31,58.82,28.39,108.5,68.48,149.27,119.63a25.23,25.23,0,0,0,2.79,2.58ZM214.2,76.12c-4.23-4.73-8.8-9.21-12.61-14.27-2.85-3.79-5.41-3.83-9.49-2.19-44,17.74-82.77,43.64-117.47,75.73C67.51,142,60.81,149,53.63,156.2,94.2,198.67,140.27,232.3,195,253.3c-41.46-41.51-45.5-95.74-36.32-128.64l24.71,4.1c-6.82,28.66-3.65,55.8,10.82,81.17s35.85,42.87,63.91,50.8C309,275.11,360,253.73,385,208.47c23.53-42.57,14.5-97.72-19.88-130.94C331,44.56,265.17,30.63,214.2,76.12Zm169-17c26.61,27.07,40.59,59.51,40.56,97.15s-14.16,70-40.7,97c55-21,101.1-54.6,141.68-97.1-40.68-42.52-86.77-76.06-141.59-97Z" transform="translate(-0.04 0)"/><path class="cls-1" d="M220.06,134.89,274.25,144,239,104.07c20.45-21.94,60.83-29.67,92.19-7.32,31.14,22.19,40,64.14,20.62,96.44-19.79,33-60.52,45.12-94.93,28.18C223,204.69,209.13,165.62,220.06,134.89Z" transform="translate(-0.04 0)"/></svg>