<svg id="Layer_1" data-name="Layer 1" xmlns="http://www.w3.org/2000/svg" viewBox="0 0 479.13 122.78"><defs><style>.cls-1{fill:#fff;}</style></defs><title>6</title><path class="cls-1" d="M327.55,326.08a3.47,3.47,0,0,1-3.48,1.81q-62,0-124,0c-2.63,0-3.44-.8-3.43-3.42,0-3.36-.14-6.71.76-10,2.33-8.54,10.51-15.79,19.27-17a5.4,5.4,0,0,0,1.36-.33,15.88,15.88,0,0,1-10.21-6.54,15.15,15.15,0,0,1-2.44-11.92,15.38,15.38,0,1,1,17.42,18.45,26.51,26.51,0,0,1,14.86,7.05A31.63,31.63,0,0,1,259.35,292a21,21,0,0,1-13.88-8.51A19.91,19.91,0,0,1,242,267.79c1.81-10.16,11.18-17.27,21.81-16.61,9.62.6,18,9,18.74,18.68a20.82,20.82,0,0,1-17.72,22.19,31.4,31.4,0,0,1,21.73,12.13,26.2,26.2,0,0,1,14.9-7c-9.22-1.93-13.76-9.7-12.91-17,.94-8.15,7.64-13.79,15.95-13.63,7.38.13,14,6.36,14.63,13.84.72,8.1-4.54,14.89-13,16.86l1.94.35c9.95,1.85,18,10,19.27,19.65a1.46,1.46,0,0,0,.22.43Zm-91-3.41h51c.16-13.84-11.51-25.47-25.52-25.49S236.36,308.89,236.56,322.67Zm40.86-51.1A15.35,15.35,0,1,0,262,286.94,15.47,15.47,0,0,0,277.42,271.57Zm-75.63,51.1h29.58a32.61,32.61,0,0,1,3.07-13.38,1.41,1.41,0,0,0-.31-1.25,18.17,18.17,0,0,0-7.26-4.59A18.68,18.68,0,0,0,201.79,322.67Zm120.83,0a47.71,47.71,0,0,0-.66-6.09A17.65,17.65,0,0,0,308.9,303.1c-7.16-2.05-13.51-.17-18.94,4.92-.57.53-.42.94-.22,1.55.9,2.73,1.83,5.46,2.54,8.24a35.85,35.85,0,0,1,.61,4.9ZM220.36,292.05a10.26,10.26,0,0,0,10.21-10.14,10.19,10.19,0,1,0-10.2,10.14Zm83.44,0a10.22,10.22,0,1,0-10.25-10.25,10.39,10.39,0,0,0,10.25,10.25Z" transform="translate(-22.58 -205.11)"/><path class="cls-1" d="M272.82,244.39a14.33,14.33,0,0,1-1.53-.61c-2.75-1.42-5.51-2.85-8.24-4.34a1.93,1.93,0,0,0-2.1,0c-2.76,1.51-5.56,2.94-8.34,4.42a2.66,2.66,0,0,1-4.14-3c.59-3.18,1.11-6.37,1.58-9.56a2.22,2.22,0,0,0-.56-1.62c-2.21-2.25-4.47-4.45-6.75-6.63a2.7,2.7,0,0,1,1.66-4.94c3-.39,6-.87,9-1.28a2.27,2.27,0,0,0,2-1.44c1.27-2.79,2.67-5.52,4-8.27.54-1.14,1.25-2,2.66-2a2.81,2.81,0,0,1,2.56,2c1.36,2.79,2.78,5.55,4.06,8.38a2.14,2.14,0,0,0,1.9,1.37c3.08.42,6.15.89,9.23,1.31A2.76,2.76,0,0,1,282.3,220a2.69,2.69,0,0,1-.93,3c-2.28,2.23-4.56,4.48-6.89,6.66a1.9,1.9,0,0,0-.61,1.92q.87,4.77,1.69,9.54A2.72,2.72,0,0,1,272.82,244.39Zm-3.2-7.31c-.39-2.22-.66-4.1-1.05-6a3.9,3.9,0,0,1,1.29-4.23c1.18-1,2.22-2.11,3.33-3.19.34-.33.67-.67,1.13-1.14-2.31-.32-4.32-.64-6.34-.87a3.67,3.67,0,0,1-3.18-2.37c-.83-1.9-1.81-3.74-2.82-5.76-1,2-1.94,3.71-2.69,5.55a4,4,0,0,1-3.69,2.63c-1.91.17-3.81.53-5.64.8,1.54,1.62,3,3.22,4.53,4.76a3.13,3.13,0,0,1,1,3.1c-.44,2.14-.73,4.32-1.12,6.68,2-1.07,3.89-2,5.7-3a3.58,3.58,0,0,1,3.84,0C265.69,235.07,267.51,236,269.62,237.08Z" transform="translate(-22.58 -205.11)"/><path class="cls-1" d="M233.89,240.1a11.22,11.22,0,0,1-1.26,2c-1.44,1.51-3,2.91-4.44,4.42a1.92,1.92,0,0,0-.44,1.4c.27,2,.67,4,1,6a2.82,2.82,0,0,1-1,3.09,2.74,2.74,0,0,1-3.12,0c-1.79-1-3.59-2-5.43-2.82a2.06,2.06,0,0,0-1.58,0c-1.88.89-3.72,1.88-5.55,2.87a2.63,2.63,0,0,1-3,0,2.76,2.76,0,0,1-1-2.94c.37-1.88.6-3.78,1-5.64a2.17,2.17,0,0,0-.75-2.35c-1.43-1.28-2.76-2.66-4.14-4a2.68,2.68,0,0,1-.91-3,2.77,2.77,0,0,1,2.57-1.79c2-.26,3.95-.6,5.93-.86a1.72,1.72,0,0,0,1.51-1.12c.83-1.81,1.75-3.59,2.63-5.38a2.66,2.66,0,0,1,5.05,0c.89,1.84,1.76,3.68,2.74,5.48a2.1,2.1,0,0,0,1.28.94c2.09.39,4.2.65,6.3,1A2.9,2.9,0,0,1,233.89,240.1Zm-8.37,1.44c-3.84.4-6.11-1.32-7-5.23-.64,1.29-1.09,2.09-1.46,2.94a3.11,3.11,0,0,1-2.69,2c-1,.11-1.94.29-2.91.44l-.24.26c3.39,1.88,4,4.67,2.78,8.2,3-2.47,5.79-2.42,8.67.07-.13-1.87-.66-3.51-.22-4.84S224.31,243,225.52,241.54Z" transform="translate(-22.58 -205.11)"/><path class="cls-1" d="M320.86,240a11.31,11.31,0,0,1-1.22,2c-1.44,1.51-3,2.9-4.44,4.42a2.1,2.1,0,0,0-.48,1.5c.26,2,.65,3.94,1,5.91a2.9,2.9,0,0,1-.93,3.12,2.76,2.76,0,0,1-3.22,0c-1.79-1-3.59-1.95-5.43-2.82a1.88,1.88,0,0,0-1.47,0c-1.84.88-3.64,1.86-5.43,2.81A2.66,2.66,0,0,1,295,254c.37-1.92.65-3.84,1-5.78a1.91,1.91,0,0,0-.65-2c-1.42-1.28-2.75-2.67-4.14-4a2.8,2.8,0,0,1-1.06-3.06,2.74,2.74,0,0,1,2.63-1.85c1.94-.26,3.87-.59,5.81-.84a1.81,1.81,0,0,0,1.6-1.19c.82-1.82,1.75-3.59,2.63-5.38a2.7,2.7,0,0,1,2.57-1.77,2.67,2.67,0,0,1,2.43,1.77c.89,1.83,1.83,3.64,2.69,5.5a1.61,1.61,0,0,0,1.4,1c2.07.26,4.13.59,6.19.9A2.93,2.93,0,0,1,320.86,240Zm-11.1,10.08c-1.51-3.68-.21-6.27,3-8.33-4.78-.71-4.78-.71-7.3-5-.81,1.32-1.36,3-2.52,3.84s-2.92.88-4.39,1.26c.95,1.13,2.37,2.18,2.8,3.54s-.1,3.07-.23,4.93C303.85,247.82,306.67,247.67,309.76,250.11Z" transform="translate(-22.58 -205.11)"/><path class="cls-1" d="M280.77,314.78a2.5,2.5,0,0,1-1.82,2.73,2.46,2.46,0,0,1-2.87-1.11c-1.14-1.57-2.24-3.18-3.47-4.68a16.4,16.4,0,0,0-2.15-1.8,2.57,2.57,0,1,1,3.08-4.1,20.75,20.75,0,0,1,6.88,7.88A5.92,5.92,0,0,1,280.77,314.78Z" transform="translate(-22.58 -205.11)"/><path class="cls-1" d="M262.17,302.31a2.54,2.54,0,1,1-2.64,2.44v-.07A2.55,2.55,0,0,1,262.17,302.31Z" transform="translate(-22.58 -205.11)"/><path class="cls-1" d="M22.58,238v-3.34h23.2v-3.95H24.1c-.51,0-1-.07-1.52-.1v-3.35a4.16,4.16,0,0,0,.23-.54c1.38-4.89,5.1-7.78,10.5-7.82,10.35-.08,20.69,0,31,0,.21,0,.43.06.64.11v7.71H75.4a8.4,8.4,0,0,0,.23-1,8,8,0,0,1,8.07-6.8c11.49-.08,23-.05,34.47,0a8.18,8.18,0,0,1,6.46,3.13c.23.27.53.67.8.68,1.68.06,3.37,0,4.92,0,.64-4.46.25-8.54-2.41-12.26a35.3,35.3,0,0,1-2.27-4.14c-.2-.37-.37-.76-.58-1.21h23.66c-.24.47-.41.87-.61,1.25-1.47,2.73-2.93,5.46-4.41,8.19a2.09,2.09,0,0,0-.38.87c0,2.4,0,4.81,0,7.36h10.43v19.76H143.42c-.42,3.22-.2,6.18,1.71,8.91a49,49,0,0,1,2.44,4.44l1.2,2.29H125.09c.21-.44.36-.79.55-1.13,1.27-2.39,2.41-4.84,3.87-7.12s.85-4.89,1-7.45c-1.69,0-3.23,0-4.76,0a1.58,1.58,0,0,0-1,.56,8.5,8.5,0,0,1-6.37,3.3,1.17,1.17,0,0,0-1.26,1c-1.22,4.7-2.52,9.38-3.78,14.08-1.2,4.49-2.38,9-3.61,13.53l1.57.88,28.76,16.05a1.84,1.84,0,0,1,1.14,1.88c-.06,4.09,0,8.19,0,12.28,0,.42,0,.84.06,1.34q1,0,1.92,0a1.75,1.75,0,0,1,2,1.14c1,2,2.15,4,3.18,6a1.26,1.26,0,0,0,1.37.78c1.35,0,2.7,0,4.1,0v11.88H86.16V315.32c1.43,0,2.75,0,4.06,0a1.26,1.26,0,0,0,1.36-.79c.81-1.62,1.8-3.16,2.53-4.81s1.59-2.75,3.71-2.31c.1,0,.23-.07.45-.14q-1.68-7.83-3.37-15.63c-1.45,0-2.69.09-3.92,0a18.66,18.66,0,0,1-3.63-.64c-8.9-2.6-13.86-11.43-11.06-19.72a15,15,0,0,1,1.45-3.09,9.4,9.4,0,0,0,.88-1.84q2.79-8.22,5.53-16.46c.36-1.08.71-2.16,1.1-3.34l-1-.09c-5-.39-7.59-2.47-8.61-7.12-.15-.69-.53-.77-1.16-.77-2.14,0-4.27,0-6.41,0H64.89v7.79l-.63.09c-10.25,0-20.51,0-30.76,0a11.37,11.37,0,0,1-7-2.24A11,11,0,0,1,22.58,238Zm78.35,4.51c5.46,0,10.93,0,16.4,0,3,0,4.73-1.62,4.74-4.46V227.29c0-2.9-1.59-4.48-4.69-4.49q-16.47,0-32.93,0c-3.07,0-4.69,1.61-4.7,4.5v10.36c0,3.32,1.59,4.81,5.16,4.81Q92.92,242.49,100.93,242.48Zm-8.47,21.71c-6.88,0-12.67,5.34-12.71,11.72s5.81,11.87,12.69,11.88,12.73-5.46,12.7-11.87S99.34,264.19,92.46,264.19Zm14.72,3.89c2-7.28,3.86-14.37,5.78-21.51-.23,0-.47-.08-.7-.11q-10.83,0-21.66,0c-.82,0-1,.43-1.15,1-1.5,4.5-3,9-4.54,13.5a8.7,8.7,0,0,0-.19.92c8.79-3.78,17.78-.7,22.46,6.24Zm42.32,51.31H90.43v3.7H149.5Zm-47-12.76,31.88-13.18c-2.34-1.31-4.48-2.53-6.65-3.71a1.46,1.46,0,0,0-1,.08c-2,.82-4,1.69-5.92,2.54q-9.22,4-18.45,7.93c-.4.17-1,.61-1,.84C101.65,302.92,102.09,304.68,102.51,306.63ZM144,315.26c-.67-1.24-1.24-2.38-1.91-3.47a1.35,1.35,0,0,0-1-.33H98.82a1.32,1.32,0,0,0-1,.35c-.66,1.09-1.23,2.22-1.89,3.45Zm-43.61-18.5L123,287.05,109,279.29a13.58,13.58,0,0,1-3.64,6.76c-1.85,1.75-4,3.21-6.26,4.94Zm36.51,0-25.15,10.39.06.17h25.09Zm-76.3-70.09v-3.84c-.46,0-.84-.06-1.22-.06H33.86a13.34,13.34,0,0,0-1.79.12,5.46,5.46,0,0,0-4.63,3.76Zm.09,15.81a23.9,23.9,0,0,1,0-2.55c.12-1.1-.31-1.4-1.49-1.39-10.12,0-20.24,0-30.36,0H27.32a6.91,6.91,0,0,0,.39.94c1.39,2.16,3.53,3,6.14,3H60.67Zm-10.46-8H75.37v-3.75H50.21Zm99.25-4V226.8h-23v3.74Zm0,4.15h-23v3.7h23Zm-7.65-25.58h-9.73c1.37,3.8,1.37,3.8,5.43,3.8a10.1,10.1,0,0,0,1.65,0,1.39,1.39,0,0,0,.87-.51C140.68,211.37,141.21,210.3,141.85,209.12ZM132,254.18h9.73c-1.3-3.75-1.4-3.81-5.4-3.81a13.14,13.14,0,0,0-1.66,0,1.36,1.36,0,0,0-.87.48C133.16,251.89,132.63,253,132,254.18Zm2.87-31.53h4.08V217h-4c0,.21-.06.41-.07.62Zm.07,23.65h4v-3.75h-4Z" transform="translate(-22.58 -205.11)"/><path class="cls-1" d="M22.58,297.85c1.48-.15,3-.25,4.44-.48a2.08,2.08,0,0,0,1.17-.78c1-1.29.74-2.41-.53-3.48a18.24,18.24,0,0,1-1.9-2.09l8.75-8.17c1,.8,2.12,1.73,3.32,2.54a1.75,1.75,0,0,0,1.41.22c.77-.38,2.06-.17,2.12-1.48s.29-2.69.45-4.12H54.16c.15,1.36.37,2.69.4,4,0,.79.45,1,1.11,1.2.82.18,1.52,1.09,2.52.18s2.21-1.73,3.22-2.52L70.17,291c-.8.91-1.69,2-2.71,3s0,1.58.2,2.35a1.19,1.19,0,0,0,1.29,1c1.44,0,2.88.24,4.36.37v11.48c-1.51.15-3,.34-4.46.42s-1.18,1.28-1.59,2a1.43,1.43,0,0,0,.25,1.31c.85,1.08,1.82,2.08,2.68,3L61.4,324.2c-1-.79-2.21-1.64-3.32-2.57s-1.8.13-2.65.36a1.53,1.53,0,0,0-.82,1.06c-.25,1.37-.36,2.76-.53,4.14H41.81c-.15-1.42-.34-2.84-.44-4.26-.09-1.26-1.33-1-2-1.41a1.77,1.77,0,0,0-1.43.15c-1.19.81-2.3,1.73-3.35,2.55l-8.75-8.15c.84-1,1.81-1.95,2.65-3a1.64,1.64,0,0,0,.24-1.42c-.38-.72-.19-1.89-1.65-1.92s-3-.25-4.44-.39Zm9.08,17.88,3,3.2c1-.74,1.81-1.46,2.75-2.06a1.73,1.73,0,0,1,1.3-.13c2,.69,3.85,1.48,5.79,2.18.6.21.88.43.9,1.07,0,1.05.21,2.1.32,3.13h4.51a30.19,30.19,0,0,1,.34-3.11,1.67,1.67,0,0,1,.88-1.05c1.89-.79,3.82-1.52,5.76-2.22a1.8,1.8,0,0,1,1.31.1c1,.62,1.85,1.37,2.61,2l3.34-2.88c-.75-.84-1.53-1.63-2.18-2.5a1.39,1.39,0,0,1-.17-1.2q1.13-2.76,2.45-5.47a1.59,1.59,0,0,1,1-.74c1.12-.19,2.27-.24,3.47-.34v-4.22c-1.14-.09-2.2-.24-3.26-.26a1.25,1.25,0,0,1-1.33-1A57.12,57.12,0,0,0,62.12,295a1,1,0,0,1,.18-1.34c.76-.8,1.46-1.64,2.12-2.42l-3.15-3c-.94.72-1.83,1.46-2.8,2.1a1.53,1.53,0,0,1-1.19.09c-1.93-.7-3.82-1.51-5.77-2.19-.65-.23-1-.46-1-1.14,0-1-.18-2.05-.29-3.11H45.72c-.11,1.06-.28,2-.31,3,0,.7-.27,1-1,1.24-1.91.63-3.79,1.37-5.64,2.17a1.14,1.14,0,0,1-1.44-.16c-.85-.71-1.76-1.36-2.41-1.86l-3.3,3a28.25,28.25,0,0,1,2,2.35,1.55,1.55,0,0,1,.13,1.31c-.71,1.77-1.56,3.5-2.28,5.27a1.17,1.17,0,0,1-1.24.92c-1.09,0-2.18.17-3.28.27v4.22c1.19.1,2.31.15,3.39.33a1.58,1.58,0,0,1,1,.74q1.3,2.72,2.43,5.47a1.43,1.43,0,0,1-.16,1.21C33,314.27,32.23,315.08,31.66,315.73Z" transform="translate(-22.58 -205.11)"/><path class="cls-1" d="M50,254.27H45.94v-3.81H50Z" transform="translate(-22.58 -205.11)"/><path class="cls-1" d="M45.94,258.3h4.19c0,1.12,0,2.22,0,3.29a.84.84,0,0,1-.56.6c-1.17.05-2.35,0-3.59,0Z" transform="translate(-22.58 -205.11)"/><path class="cls-1" d="M46,266.18h4.14c0,1.12,0,2.22,0,3.3a.91.91,0,0,1-.67.6c-1.1.07-2.21,0-3.42,0Z" transform="translate(-22.58 -205.11)"/><path class="cls-1" d="M86.12,232.68a6.23,6.23,0,1,1,0,.14A.66.66,0,0,1,86.12,232.68Zm6.34-2a1.9,1.9,0,1,0,0,3.79,1.9,1.9,0,1,0,0-3.79Z" transform="translate(-22.58 -205.11)"/><path class="cls-1" d="M109.35,226.74a5.91,5.91,0,1,1-6.29,5.95v0a6.07,6.07,0,0,1,6.22-5.92Zm2.12,5.92a2,2,0,0,0-2-1.92,2,2,0,0,0-2.1,1.76v.05a2,2,0,0,0,2,2h.06a2.09,2.09,0,0,0,2.06-1.92Z" transform="translate(-22.58 -205.11)"/><path class="cls-1" d="M94.55,274h4.18v4H94.64v3.83H90.35v-3.74H86.22v-4h4v-3.91h4.3Z" transform="translate(-22.58 -205.11)"/><path class="cls-1" d="M35.28,303.16c.39-7,6.53-11.75,13.26-11.42,7.47.37,12.46,6.05,12.14,12.32-.38,6.52-6.36,11.53-13.37,11.18S35.12,309.55,35.28,303.16ZM48,295.7c-4.59,0-8.53,3.64-8.48,7.89A8.31,8.31,0,0,0,48,311.42c4.52,0,8.4-3.52,8.48-7.78S52.64,295.72,48,295.7Z" transform="translate(-22.58 -205.11)"/><path class="cls-1" d="M388.46,319c.6-1.74,1.11-3.23,1.62-4.73.06-.16.11-.32.16-.47.93-2.67.83-3.05-1.59-4.74a1.93,1.93,0,0,0-1.35-.07c-1.95.54-3.89,1.16-5.83,1.73-1.69.5-2.44.29-3.35-1.09-1.05-1.59-2-3.22-3-4.86a2.17,2.17,0,0,1,.64-3.07c1.54-1.26,3-2.59,4.57-3.84a1.61,1.61,0,0,0,.58-1.74c-.26-2.22-1.53-3.05-3.77-3.2a33.3,33.3,0,0,1-4.38-.88,2.06,2.06,0,0,1-1.92-2c-.08-2.08-.08-4.17,0-6.25a2.13,2.13,0,0,1,2-2.09c2-.37,3.89-.86,5.86-1.16a2.13,2.13,0,0,0,1.87-1.59c.76-1.82.25-3-1.39-4a39.7,39.7,0,0,1-3.46-2.88,2.11,2.11,0,0,1-.62-3c1-1.68,2-3.36,3.05-5,.86-1.31,1.65-1.52,3.25-1.05,1.95.57,3.9,1.13,5.83,1.76a1.8,1.8,0,0,0,1.81-.35c1.9-1.29,2.15-2.75,1.15-4.67A24.48,24.48,0,0,1,388.9,256c-.49-1.49-.25-2.24,1.13-3,1.7-1,3.44-1.9,5.2-2.79,1.43-.71,2.25-.52,3.38.63,1.38,1.41,2.76,2.82,4.1,4.27a1.73,1.73,0,0,0,1.75.51c2.29-.26,3.33-1.32,3.47-3.48a28.68,28.68,0,0,1,1-4.23,2,2,0,0,1,1.94-1.69q3.54-.12,7.08,0a2,2,0,0,1,2,1.77c.42,1.92.89,3.82,1.31,5.73a1.89,1.89,0,0,0,1.45,1.53,3.46,3.46,0,0,0,4.56-1.32,37.55,37.55,0,0,1,3.09-3.23,2.36,2.36,0,0,1,3-.55c1.83.93,3.65,1.9,5.45,2.89a2.19,2.19,0,0,1,1.08,3c-.63,1.82-1.19,3.66-1.89,5.45-.31.81,0,1.24.51,1.88,1.35,1.71,2.83,1.85,4.77,1a34.72,34.72,0,0,1,4.13-1.27,2.48,2.48,0,0,1,3.16,1c1.05,1.69,2.1,3.38,3.09,5.1a2,2,0,0,1-.58,2.86c-1.56,1.31-3.09,2.65-4.67,3.93a1.61,1.61,0,0,0-.59,1.74c.26,2.14,1.44,3,3.63,3.18a44.59,44.59,0,0,1,4.52.9,2.08,2.08,0,0,1,1.92,2q.12,3.12,0,6.25a2.16,2.16,0,0,1-2,2.1c-2.09.4-4.16.87-6.25,1.25a1.71,1.71,0,0,0-1.4,1.25c-.82,1.88-.46,3.23,1.41,4.38a32,32,0,0,1,3.36,2.8,2.1,2.1,0,0,1,.61,3c-1,1.68-2,3.35-3,5-.86,1.3-1.66,1.51-3.26,1-2-.57-3.9-1.12-5.82-1.77a1.84,1.84,0,0,0-1.9.45c-1.81,1.23-2,2.61-1.1,4.45a30.44,30.44,0,0,1,1.41,4,2.16,2.16,0,0,1-1.07,2.86c-1.84,1-3.69,2-5.57,2.95a2.33,2.33,0,0,1-2.94-.53c-1.43-1.49-2.88-3-4.29-4.47a1.74,1.74,0,0,0-1.75-.5c-2.28.26-3.33,1.31-3.47,3.47a28.63,28.63,0,0,1-.93,4.11,2.17,2.17,0,0,1-2.24,1.87c-2.22.06-4.45.06-6.67,0a2.12,2.12,0,0,1-2.15-1.8c-.41-1.91-.89-3.82-1.3-5.73a1.92,1.92,0,0,0-1.46-1.52,3.46,3.46,0,0,0-4.56,1.31,36.26,36.26,0,0,1-3.09,3.24,2.39,2.39,0,0,1-3.06.54c-1.87-.95-3.74-1.92-5.53-3A6.87,6.87,0,0,1,388.46,319ZM415.88,250a14.22,14.22,0,0,1-1.6,0c-1.15-.17-1.58.33-1.78,1.34-.32,1.76-.78,3.49-1.15,5.23a2.56,2.56,0,0,1-2.36,2.12,40.52,40.52,0,0,0-4.85,1.23,2.89,2.89,0,0,1-3.39-.79c-1.51-1.64-3.1-3.21-4.67-4.83-.42.23-.84.43-1.27.62-1.14.42-1.41,1-.94,2.16.69,1.61,1.14,3.31,1.74,5a2.34,2.34,0,0,1-.82,2.85c-1.34,1.15-2.62,2.36-3.85,3.6a2.65,2.65,0,0,1-2.93.76c-1.46-.48-2.93-.9-4.4-1.34-2.53-.76-2.53-.76-3.8,1.52a1.12,1.12,0,0,0,0,.32c1.71,1.45,3.44,3,5.2,4.42a2.31,2.31,0,0,1,.76,2.85,33.54,33.54,0,0,0-1.34,4.67A2.63,2.63,0,0,1,382,284c-1.82.32-3.62.79-5.46,1.05-1.27.18-1.52.74-1.56,1.86s.59,1.49,1.63,1.66c1.87.33,3.72.71,5.58,1.08a2.47,2.47,0,0,1,2.11,2.05,42.11,42.11,0,0,0,1.33,4.67,2.51,2.51,0,0,1-.84,3.18c-1.75,1.41-3.43,2.9-5.16,4.38a9.22,9.22,0,0,1,.66,1.19c.45,1.07,1.12,1.31,2.31.87,1.72-.63,3.55-1.06,5.29-1.63a2.72,2.72,0,0,1,3.05.77,50,50,0,0,0,3.75,3.52,2.37,2.37,0,0,1,.87,2.95c-.51,1.32-.94,2.66-1.39,4-.82,2.38-.82,2.38,1.61,3.57a2,2,0,0,0,.34.05c1.59-1.64,3.22-3.3,4.82-5a2.53,2.53,0,0,1,2.83-.65q2.58.78,5.24,1.31a2.57,2.57,0,0,1,2.31,2.17c.37,1.79.92,3.56,1.19,5.36.17,1.16.85,1.16,1.78,1.18s1.68-.05,1.87-1.23c.27-1.76.81-3.48,1.15-5.22a2.67,2.67,0,0,1,2.52-2.27,31.53,31.53,0,0,0,4.71-1.19,2.9,2.9,0,0,1,3.4.79c1.51,1.64,3.1,3.21,4.67,4.83a12.41,12.41,0,0,1,1.27-.62c1.15-.42,1.4-1.05.93-2.16-.7-1.67-1.19-3.39-1.78-5.08a2.25,2.25,0,0,1,.76-2.64c1.36-1.19,2.69-2.41,3.95-3.69a2.62,2.62,0,0,1,2.93-.75c1.46.47,2.93.89,4.4,1.33,2.52.77,2.51.78,3.74-1.4a2.7,2.7,0,0,0,.14-.4c-1.74-1.49-3.47-3-5.24-4.46a2.3,2.3,0,0,1-.76-2.85,42.16,42.16,0,0,0,1.37-4.79,2.57,2.57,0,0,1,2.32-2.15c2-.37,4-.9,6-1.19,1.23-.18,1-.93,1-1.59s.27-1.5-1-1.68c-2-.28-3.89-.82-5.86-1.17a2.59,2.59,0,0,1-2.4-2.22,27.5,27.5,0,0,0-1.27-4.42A2.61,2.61,0,0,1,444,274c1.73-1.36,3.37-2.84,5.06-4.27-.24-.39-.46-.79-.66-1.19-.45-1.07-1.12-1.32-2.31-.88-1.77.66-3.61,1.12-5.42,1.66a2.6,2.6,0,0,1-2.82-.71c-1.3-1.3-2.66-2.56-4-3.78a2.22,2.22,0,0,1-.71-2.65c.49-1.37,1-2.74,1.43-4.12.81-2.37.81-2.37-1.61-3.56a1.41,1.41,0,0,0-.35-.05c-1.56,1.6-3.16,3.22-4.73,4.87a2.66,2.66,0,0,1-3,.72,38.44,38.44,0,0,0-5-1.29,2.65,2.65,0,0,1-2.47-2.32C416.94,254.34,416.4,252.28,415.88,250Z" transform="translate(-22.58 -205.11)"/><path class="cls-1" d="M481.34,215.61a10.72,10.72,0,0,1-.51,1.33c-.76,1.4-1.56,2.79-2.32,4.19-.61,1.13-.22,2,1.07,2.34,1.6.48,3.19,1,4.8,1.41a2.21,2.21,0,0,1,1.89,2.08c.06,1.78.05,3.56,0,5.34a2.06,2.06,0,0,1-1.72,1.92c-1.64.48-3.28,1-4.92,1.47-1.36.41-1.72,1.22-1.06,2.44.76,1.4,1.55,2.79,2.34,4.18a2.05,2.05,0,0,1-.31,2.7c-1.26,1.24-2.54,2.44-3.85,3.62a2.48,2.48,0,0,1-3,.25c-1.48-.75-3-1.48-4.46-2.18a1.62,1.62,0,0,0-2.51,1c-.51,1.5-1,3-1.52,4.5A2.27,2.27,0,0,1,463,254q-2.79.09-5.58,0a2.28,2.28,0,0,1-2.23-1.75c-.46-1.47-1-2.92-1.48-4.37s-1.3-1.76-2.76-1-2.9,1.42-4.35,2.13a2.39,2.39,0,0,1-2.88-.29c-1.29-1.15-2.54-2.31-3.78-3.5a2.17,2.17,0,0,1-.36-2.92c.79-1.34,1.52-2.7,2.29-4.07s.33-2-1.16-2.49-3.09-1-4.66-1.39a2.19,2.19,0,0,1-1.89-2.06c-.07-1.74-.07-3.49,0-5.23a2.17,2.17,0,0,1,1.87-2.07c1.61-.43,3.21-.94,4.8-1.43,1.36-.42,1.71-1.23,1-2.44-.76-1.41-1.55-2.8-2.34-4.19a2,2,0,0,1,.31-2.7c1.23-1.19,2.49-2.38,3.75-3.53a2.54,2.54,0,0,1,3.12-.34c1.47.76,3,1.48,4.46,2.18a1.6,1.6,0,0,0,2.5-1c.51-1.49,1-3,1.51-4.49a2.27,2.27,0,0,1,2.21-1.77c1.86-.06,3.72-.06,5.59,0a2.26,2.26,0,0,1,2.22,1.75c.47,1.51,1,3,1.52,4.49.44,1.27,1.32,1.61,2.61,1,1.5-.71,3-1.46,4.47-2.19a2.28,2.28,0,0,1,2.66.14c1.49,1.31,2.91,2.68,4.32,4.07A4,4,0,0,1,481.34,215.61Zm-5,.48a2,2,0,0,0-2.2-1.33,11.4,11.4,0,0,0-1.68.83c-2.37,1.55-4.74,2-7.41.49-.93-.54-1.73-1-2-2-.41-1.34-1-2.66-1.31-4-.23-.84-.73-.91-1.49-.92s-1.17.14-1.37.89a24.3,24.3,0,0,1-1.41,4.11,5,5,0,0,1-1.86,1.85,6.17,6.17,0,0,1-7.37-.32c-.39-.28-.91-.4-1.32-.66a1.47,1.47,0,0,0-2.1.17c-.75.71-.53,1.21-.1,1.86a10.26,10.26,0,0,0,.63,1.13c1.81,2.26,2.15,4.61.43,7a5.05,5.05,0,0,1-2,1.75,29.32,29.32,0,0,1-4.39,1.33,1.08,1.08,0,0,0-1,1.26c0,.7,0,1.18,1,1.41a30,30,0,0,1,4.39,1.3,3.72,3.72,0,0,1,1.85,1.51c1.77,3.61,1.74,3.63-.22,7.13a14.13,14.13,0,0,1-.84,1.46c-.47.64-.34,1.08.23,1.64a1.44,1.44,0,0,0,2,.28c2.76-1.43,5.5-3.44,8.81-1.1,0,0,.1,0,.13.05.59.59,1.4,1.1,1.73,1.8a25.36,25.36,0,0,1,1.41,4.12,1.13,1.13,0,0,0,1.35.92c.75,0,1.27-.05,1.51-.9A27.35,27.35,0,0,1,463,245a3.47,3.47,0,0,1,1.49-1.67c3.88-1.77,3.9-1.73,7.74.16a14.18,14.18,0,0,1,1.56.78,1.25,1.25,0,0,0,1.75-.22,1.23,1.23,0,0,0,.3-1.84c-1.52-2.59-3.61-5.11-1.21-8.28a4,4,0,0,1,2.13-1.79c1.43-.39,2.84-.9,4.29-1.23.89-.21,1-.7,1-1.4a1.07,1.07,0,0,0-1-1.27,33.27,33.27,0,0,1-4.4-1.32,3.7,3.7,0,0,1-1.84-1.51c-1.79-3.6-1.74-3.62.22-7.12l1-1.7C476.15,216.42,476.24,216.23,476.31,216.09Z" transform="translate(-22.58 -205.11)"/><path class="cls-1" d="M497.7,265.31c-.53,1.09-1,2.14-1.53,3.17-.74,1.5-.33,2.49,1.29,3,4.3,1.45,4.3,1.45,4.24,5.71,0,2.8-.26,3.09-3.1,4-.47.16-.94.31-1.4.48a1.91,1.91,0,0,0-1.28,2.48,1,1,0,0,0,.07.15c.13.27.28.53.41.8,1.61,3.17,1.57,3.41-1.14,5.93l-.49.44c-2.26,1.95-2.43,2-5.23.73-.37-.17-.75-.32-1.12-.48a2.12,2.12,0,0,0-3.13,1.27c-1.53,4-1.53,4-6,4-3.14,0-3.42-.21-4.5-3-.16-.44-.3-.89-.49-1.32a2.18,2.18,0,0,0-2.64-1.05l-1,.43c-3.36,1.51-3.68,1.45-6.32-1.07-.16-.15-.31-.31-.46-.47-2.12-2.16-2.14-2.27-.8-4.9.18-.35.35-.69.52-1,.68-1.35.19-2.42-1.35-2.93-4.3-1.45-4.3-1.45-4.24-5.71,0-2.76.25-3,3-4,.51-.17,1-.33,1.54-.51a1.93,1.93,0,0,0,1.26-2.51l-.06-.13c-.13-.27-.28-.54-.41-.81-1.63-3.19-1.59-3.38,1.13-5.92l.5-.43c2.28-2,2.48-2,5.24-.75l1.1.49a2.09,2.09,0,0,0,3.13-1.27c1.55-4,1.55-4,6.11-4,3,0,3.28.23,4.31,2.89.17.44.32.88.51,1.32a2.14,2.14,0,0,0,2.69,1.18l.12-.05c.34-.14.66-.3,1-.44,3.3-1.44,3.49-1.41,6.09,1a15.48,15.48,0,0,1,1.71,1.82A8.11,8.11,0,0,1,497.7,265.31Zm0,11.21a17.11,17.11,0,0,0-1.43-1c-1.21-.62-2.93-.92-3.56-1.86-1.43-2.23-2.66-4.74-.44-7.28a.2.2,0,0,0,.06-.11c-.05-.4,0-1-.21-1.16a1.77,1.77,0,0,0-1.35-.21c-.81.24-1.54.76-2.36,1a4.35,4.35,0,0,1-2.09,0c-2.76-.75-5.09-2-5.52-5,0-.26-.62-.64-.92-.62a1.55,1.55,0,0,0-1.07.65,15.57,15.57,0,0,0-.8,2c-.62,1.56-4.75,3.56-6.45,3.1a5.45,5.45,0,0,1-.76-.3c-.57-.25-1.16-.49-1.72-.76s-1-.52-1.66.08-.28,1,0,1.45c1.26,1.87,1.62,3.75.16,5.68a1.38,1.38,0,0,0-.17.48,3,3,0,0,1-2.43,2.31c-.52.13-1,.34-1.54.5s-1.38.31-1.09,1.11a2.22,2.22,0,0,0,1.08,1c.63.32,1.38.43,2,.75a3.49,3.49,0,0,1,1.53,1.14c1.25,2.37,2.47,4.79.32,7.31a.38.38,0,0,0-.11.24,2.06,2.06,0,0,0,.14.88c.38.61.88.63,1.59.33,1.29-.56,2.51-1.67,4.06-1.15,2.59.88,5.38,1.64,5.7,4.86a.31.31,0,0,0,.08.24c.35.24.72.67,1.07.67a1.49,1.49,0,0,0,1-.72c.38-.71.54-1.53.91-2.25A2.86,2.86,0,0,1,483,288.6c2.53-1.14,5.11-2.38,7.82-.33a.35.35,0,0,0,.25.1,3.21,3.21,0,0,0,1.05-.17c.63-.34.53-.81.28-1.4-.51-1.19-1.46-2.58-1.18-3.65.64-2.45,1.52-5.08,5-5.46a1.12,1.12,0,0,0,.51-.15C497,277.31,497.22,277,497.74,276.52Z" transform="translate(-22.58 -205.11)"/><path class="cls-1" d="M418.1,243.22l-3.29-3,2.72-1.92-.36-.47c-17.21-.48-31.56,5.35-43.09,17.61l-1.64-1.29-1.68-1.34A56.35,56.35,0,0,1,391.81,238a60.12,60.12,0,0,1,26.07-4.27c-.67-.64-1.05-1.06-1.5-1.43s-1-.71-1.56-1.06l3.32-3c2.2,2,4.47,4,6.65,6.14a1.74,1.74,0,0,1-.07,2.66C422.56,239.15,420.34,241.15,418.1,243.22Z" transform="translate(-22.58 -205.11)"/><path class="cls-1" d="M489.27,251.38l-3.44-2.59c7.84-10,9.19-20.65,3.88-32-.39,1.66-.76,3.31-1.17,5l-4.27-.79c.76-3.51,1.44-6.92,2.22-10.31a1.87,1.87,0,0,1,2.2-1.52c3.74.6,7.46,1.31,11.28,2-.3,1.43-.57,2.71-.85,4.06l-5.43-1C499.76,227.45,498.32,239.75,489.27,251.38Z" transform="translate(-22.58 -205.11)"/><path class="cls-1" d="M414.41,264.34c13.26,0,24,10.13,23.94,22.55s-10.82,22.45-24.08,22.41-23.91-10.09-23.9-22.55,10.76-22.43,24-22.41Zm0,4.08c-10.75,0-19.64,8.29-19.67,18.35s8.83,18.4,19.57,18.45S434,296.9,434,286.8s-8.89-18.38-19.64-18.38Z" transform="translate(-22.58 -205.11)"/><path class="cls-1" d="M460.19,239.79c-6,0-10.89-4.61-10.87-10.25s4.92-10.2,10.94-10.18,10.89,4.6,10.87,10.24-4.86,10.19-10.86,10.19Zm.09-4.09a6.14,6.14,0,1,0,0-12.26c-3.57,0-6.62,2.89-6.55,6.22a6.45,6.45,0,0,0,6.6,6.05Z" transform="translate(-22.58 -205.11)"/><path class="cls-1" d="M479.83,284.77a8.74,8.74,0,1,1,.11,0Zm-4.31-8.36a4.32,4.32,0,0,0,4.16,4.27,4.39,4.39,0,0,0,4.56-3.9,4.32,4.32,0,0,0-4.17-4.27,4.39,4.39,0,0,0-4.56,3.9Z" transform="translate(-22.58 -205.11)"/></svg>