<svg id="Layer_1" data-name="Layer 1" xmlns="http://www.w3.org/2000/svg" viewBox="0 0 488.82 514.11"><defs><style>.cls-1{fill:#39b54a;stroke:#39b54a;stroke-miterlimit:10;stroke-width:3px;}</style></defs><path class="cls-1" d="M172.58,676.5a15.57,15.57,0,0,0-2.19-1c-13.66-4.25-22.42-15.33-22.52-29.54-.2-26.11-.56-52.25.1-78.35.77-30.35,17.7-49.75,44.5-61.66,16.42-7.3,34.17-9.41,51.53-12.95,15.78-3.21,31.6-6.14,47.42-9.14,2.45-.46,4.07-1.37,3.65-4.2a2.09,2.09,0,0,1,0-.5c1.34-9.5-1.4-16.28-9.63-22.71-14.36-11.2-21.93-27.22-24.95-45.21-.54-3.16-1.28-5-5.05-6-9.36-2.38-15-10.16-15.64-20.2a36.14,36.14,0,0,1,0-5c.43-6-.44-10.68-6-15.26-10.52-8.67-7.37-26.08,4.85-32.31,1.46-.75,3-1.31,3.18-2.3C244,318,245,305.42,248.74,293.73c12.25-38.3,48.07-64.09,88.21-65.6,24.12-.91,46.76,3,66.67,17.37,26.88,19.39,40.55,45.88,41.44,79,0,1.66,0,3.33.09,5a4.17,4.17,0,0,0,.25.95c12.43,5.63,17.8,14.22,14.43,25.24-1.35,4.42-4.95,8.46-8.37,11.82-2,1.93-3.16,3.37-3,6.1.15,3.82.14,7.66,0,11.48-.47,10.4-6.36,18-16.44,20.55-2.61.67-3.46,1.65-3.82,4.15-3.14,21.46-13.67,38.61-30.83,51.67-2.94,2.23-4.47,4.39-4.11,8.18.37,4,.11,8,.14,12a9.15,9.15,0,0,0,.4,1.46c9.83,1.93,19.91,3.84,30,5.88,19.5,4,39.09,7.59,58.45,12.16A84.84,84.84,0,0,1,517.39,519c16.42,13.78,23.25,31.82,23.15,52.92-.1,23.62,0,47.24,0,70.87,0,17.6-7,27.17-23.79,33.07-.27.1-.46.45-.69.68Zm290.59-15.17c0-9.32-.17-18.12.11-26.91.07-2.29.89-5.41,2.5-6.55,2-1.39,5.64-2.18,7.62-1.24a9.34,9.34,0,0,1,4.54,6.68c.52,9.23.21,18.5.21,28.24,10.21,0,19.82,0,29.42,0,11.44,0,17.6-6.12,17.61-17.46,0-24.45.06-48.89,0-73.33A70.15,70.15,0,0,0,524,557.39c-3.55-17.61-15.13-28.34-32.23-36.49-3.71,18.25-7.61,35.51-10.6,52.92-1.71,9.95-1.86,20.16-2.85,30.24-.45,4.57-3.27,6.7-7.81,6.56-4.2-.13-6.9-2.88-7.19-7.35a31.18,31.18,0,0,1,.11-4c1.5-26.62,5.77-52.78,13.85-78.21,1.59-5-.15-6.4-4.46-7.22-15.31-2.92-30.61-5.95-45.91-9-2.63-.51-4.49-.16-6.26,2.42C401,536,381,564.33,361.56,593.12c-4,5.9-6.59,13-8.37,20-1.54,6-1.2,12.51-1.32,18.81-.18,9.74-.05,19.48-.05,29.43Zm-254.07-146c17.37,48,16.93,97,16.07,145.89H336.49c0-12.55-.09-24.82,0-37.08a53.62,53.62,0,0,0-9.94-31.75Q297.22,550,267.9,507.6c-1.82-2.65-3.65-3.31-6.6-2.67-6.48,1.42-13,2.6-19.51,3.9C231.26,510.92,220.73,513,209.1,515.36Zm46.05-144.13v9.45c0,9.2,1,10.18,10.21,10.43,6.06.16,8.76,2.77,9,8.82,1.89,46.17,47.17,70.54,82.66,63.46,27.12-5.41,55.19-25.84,57.14-64.4.26-5.23,3-7.65,8.31-7.87,1.82-.08,4,.48,5.39-.32,2.07-1.19,4.78-3.15,5.1-5.12.74-4.64.24-9.49.24-14.45Zm3.61-41.39H429.44c3-31.79-16.94-64-41.43-75.53,0,2.68.09,5.11,0,7.54-.25,5.25-2.88,8.16-7.38,8.31-4.74.16-7.66-2.76-7.91-8.26-.19-4,.09-8-.16-12-.07-1.24-1-3.26-1.84-3.46-6-1.42-12.15-2.46-18.06-3.58a9.7,9.7,0,0,0-.69,1.87q-.07,15.71-.13,31.42c0,8.08-2.38,11.56-7.76,11.46s-7.57-3.53-7.57-11.68V242.73C329.87,244,323.87,245,318,246.41c-1,.25-2.23,2.28-2.33,3.57-.3,4.13,0,8.31-.17,12.46-.18,4.91-2.86,7.65-7.27,7.72s-7.52-2.91-7.74-7.88c-.11-2.59,0-5.18,0-8C276.56,265.47,256.22,296.75,258.76,329.84Zm-49,331.56c.93-47.38,1.63-94.35-14.54-139.62-17.82,7.12-31.09,23.11-31.54,40.37-.74,28.09-.52,56.21-.44,84.32,0,8,5.61,14.33,13.47,14.78C187.63,661.86,198.59,661.4,209.78,661.4ZM310.25,472.9c0,4.11.33,7.63-.07,11.06-1,9,2.6,16.1,9.26,21.42C326.53,511,334.21,516,341.79,521c1.1.73,3.49.9,4.49.2C355,515,364,509,372.05,502c3.17-2.78,5.11-7.83,5.94-12.17,1-5.28.24-10.89.24-16.93C355.54,482,333.06,482.07,310.25,472.9ZM344.15,356h92.33c1.5,0,3.4.51,4.4-.21,1.8-1.3,4.16-3.31,4.21-5.08s-2.19-4-4-5.24c-1.13-.81-3.22-.35-4.87-.35q-92.1,0-184.18,0c-1.81,0-4-.37-5.35.51-1.69,1.12-3.69,3.35-3.65,5.06s2.14,3.8,3.85,5c1.17.79,3.22.34,4.88.34ZM369.59,554.7c-7.69-4.52-15-9-22.58-13.12a6.75,6.75,0,0,0-5.58-.05c-7.62,4.15-15,8.68-22.63,13.14q12.52,18.12,25.37,36.71Zm37.07-53.57c-4.37-.89-7.91-1.91-11.51-2.18-1.44-.11-3.42,1.11-4.42,2.32C386,507,382,513.38,376.86,518.6c-4.85,4.87-10.88,8.57-16.63,13,2.95,1.79,5.89,3.63,8.87,5.38,5.47,3.23,10.68,2.57,14.44-2.64C391.3,523.61,398.69,512.62,406.66,501.13Zm-124.91.08c8.09,11.62,15.64,22.85,23.65,33.75a9.24,9.24,0,0,0,11.6,3.19c3.93-1.77,7.45-4.45,11.21-6.76a5.9,5.9,0,0,0-.65-.72c-12.29-8-24.13-16.46-30.41-30.51-.38-.85-2.49-1.45-3.68-1.29C289.78,499.37,286.14,500.29,281.75,501.21Z" transform="translate(-53.23 -163.89)"/><path class="cls-1" d="M302.79,210.59c-4.09,4.39-7.71,8.53-11.6,12.39-6.61,6.59-13.4,7.35-21.82,3.51s-17-7.39-25.69-10.66-13.05-9-13.12-18.39c0-4.49.25-9-.17-13.46-.12-1.3-2.14-3.41-3.34-3.45-8.81-.3-17.64-.1-26.45-.2-2.9,0-3.81,1.35-3.8,3.95,0,5,.08,10-.09,15-.26,8-4.47,13.19-11.87,16.15-9.38,3.74-18.69,7.66-28,11.68-7.3,3.17-14.17,2.11-20.19-3.6-4-3.78-7.85-7.68-11.78-11.5a1.68,1.68,0,0,0-.65-.33l-24.07,24.17c3.79,3.41,8,6.9,11.88,10.75,7,7,7.69,13.77,3.56,22.67-3.77,8.09-7.16,16.39-10.25,24.77-3.31,8.93-8.6,13.16-18.18,13.4-4.32.12-8.65.11-13,0-3-.07-4.62.77-4.55,4.22.17,8.48.13,17,0,25.45,0,3,1,4.23,4.07,4.12,4.65-.16,9.32-.1,14,0,8.27.13,14,4.46,17.07,12.11q5.46,13.86,11.48,27.5c3.34,7.6,2.47,14.58-3.55,20.57-4.1,4.08-8.61,7.75-13.39,12,8.43,8.41,15.63,15.73,23.06,22.81.6.56,3.14,0,4.08-.86,3.59-3.21,6.84-6.8,10.32-10.13,6.09-5.84,12.9-6.7,20.62-3.3q13.41,5.91,27.08,11.19c7.58,2.95,11.87,8.3,12.22,16.45.2,4.82.16,9.65.07,14.47-.06,2.9,1,4.21,4.05,4.16,8.65-.14,17.3-.11,25.95,0,2.74,0,3.89-.93,3.81-3.77-.16-5-.24-10,0-15,.4-7.47,4.06-12.87,11.09-15.72,4.56-1.85,8.46-.63,10.3,3.06,2,4,.6,7.6-3.52,10.54a7.11,7.11,0,0,0-2.72,4.59c-.36,4.8,0,9.65-.17,14.47-.27,9.11-5.7,16-14.66,16.62a266.18,266.18,0,0,1-34.36,0c-9-.58-14.71-7.86-14.9-17-.1-4.66-.18-9.32,0-14,.13-2.82-1-4.06-3.55-5.06-8.79-3.45-17.41-7.3-26.23-10.67a6.43,6.43,0,0,0-5.43.77c-3.7,3.08-6.87,6.77-10.36,10.09-7.42,7.06-17.17,7.13-24.54,0Q101,436.87,90.79,426.27c-7-7.25-6.9-16.87,0-24.15,3.19-3.38,6.46-6.71,9.88-9.87,2.16-2,2.44-3.74,1.18-6.53-3.81-8.44-7.42-17-10.69-25.67-1.09-2.9-2.51-3.9-5.41-3.83-5,.12-10,.16-15-.07a16.41,16.41,0,0,1-15.94-16.52q-.16-15.21,0-30.44c.09-9.41,7.22-16.57,16.77-16.87,4.82-.16,9.66-.14,14.48,0,2.71.09,4-.79,5-3.51,3.35-8.82,7.29-17.42,10.66-26.23a6.53,6.53,0,0,0-.8-5.5c-3.07-3.7-6.78-6.85-10.09-10.36-7.07-7.5-7-17.1.19-24.5q10.09-10.38,20.46-20.48c7.57-7.38,17.2-7.33,24.89,0,3.24,3.11,6.48,6.24,9.5,9.55,2,2.21,3.75,2.36,6.51,1.11,8.46-3.8,17-7.38,25.7-10.67,2.65-1,3.7-2.18,3.6-5-.16-4.81-.16-9.65,0-14.47A16.9,16.9,0,0,1,199,165.44q14.73-.1,29.45,0c9.95.07,16.85,6.83,17.16,16.85.15,4.66.14,9.32,0,14-.07,2.84.79,4.36,3.74,5.48,8.83,3.32,17.41,7.29,26.22,10.67a6.6,6.6,0,0,0,5.52-.86c3.69-3.07,6.85-6.79,10.36-10.09,8.41-7.9,20.81-6.42,27.25,3.14,2.32,3.44,1.86,6.67-.91,9.48s-6.12,3.24-9.5,1C306.66,214,305.24,212.62,302.79,210.59Z" transform="translate(-53.23 -163.89)"/><path class="cls-1" d="M158.22,324.21a55.71,55.71,0,0,0,56.4,55.69c4.14,0,8.14-.14,9.83,4.72,1.92,5.48-1.51,10.17-7.79,10.28-26.49.48-47.55-10.1-62.08-32.19-29-44.12-.58-103.11,51.95-108.62a71.6,71.6,0,0,1,30.4,3.52c5.87,1.95,8,5.75,6.2,10.5-1.63,4.34-5.52,5.68-11.22,3.86-33.54-10.73-66.44,8.78-72.94,43.31A85.33,85.33,0,0,0,158.22,324.21Z" transform="translate(-53.23 -163.89)"/></svg>