<svg id="Layer_1" data-name="Layer 1" xmlns="http://www.w3.org/2000/svg" viewBox="0 0 386.26 386.25"><defs><style>.cls-1{fill:#39b54a;stroke:#39b54a;stroke-miterlimit:10;stroke-width:3px;}</style></defs><path class="cls-1" d="M489.27,597.6c-.84,1.76-1.53,3.61-2.53,5.28-3.94,6.49-9.73,9.7-17.38,9.69-24.94,0-49.89,0-74.84,0-11.77,0-20.09-7.58-20.27-19.35-.22-14.33-.09-28.68.63-43,.67-13.06,14.14-25.59,27.21-26.78a21.94,21.94,0,0,1,10.78,1.81c12.29,5,24.95,5.42,37.1.22,10-4.26,18.15-1.4,26.18,4,7.47,5,10.92,12.66,13.12,21Zm-57.68,2.22c12.21,0,24.43,0,36.64,0,5.78,0,8.24-2.44,8.27-8.18.06-11.83.1-23.67,0-35.51-.08-7.78-3.22-14-10.26-17.81-3.18-1.7-6.46-2.83-10.3-1.26-16.19,6.66-32.42,6.46-48.68,0a10,10,0,0,0-5.73-.3c-8.74,2.15-14.1,9.09-14.24,18.6-.17,12-.07,23.92,0,35.88,0,6.48,2.19,8.56,8.85,8.57Q413.84,599.84,431.59,599.82Z" transform="translate(-104.51 -227.82)"/><path class="cls-1" d="M303.63,229.32c6.78,2.06,13.24,4.55,18.85,9.2,17.21,14.28,18.08,41.81,1.51,56.86-11,10-23.9,13.34-38.07,8.66s-23-14.87-26-29.62c-4-19.5,9.38-39.55,29.38-44.27a22,22,0,0,0,2.36-.83ZM297.47,293a25.45,25.45,0,1,0,.35-50.9c-13.69-.23-25.5,11.44-25.64,25.34A25.55,25.55,0,0,0,297.47,293Z" transform="translate(-104.51 -227.82)"/><path class="cls-1" d="M297.63,401.56c-13.46,0-26.94.39-40.38-.14a17.47,17.47,0,0,1-16.91-16.93,445.51,445.51,0,0,1,.54-45.21c1.12-15.21,16.15-27.34,31.36-26.85a9.64,9.64,0,0,1,3.55.9c14.59,6.6,29.08,6.46,43.74,0,6-2.61,11.87-.45,17.24,2.16,12.26,6,18.2,16.22,18.42,29.71.19,11.72.05,23.44,0,35.16,0,13.49-7.78,21.39-21.31,21.5-12.09.09-24.19,0-36.29,0Zm-.19-12.69c12.34,0,24.68,0,37,0,5.37,0,7.75-2.07,7.81-7.29.14-12.34.21-24.68,0-37-.17-8.8-4.38-15.24-12.91-18.15a11.21,11.21,0,0,0-7.1-.11c-16.42,6.45-32.71,6.5-49.09,0a9.51,9.51,0,0,0-5-.44c-7.8,1.37-14.36,7.91-14.66,15.75-.53,13.56-.47,27.15-.37,40.72,0,4.56,2.58,6.54,7.33,6.56C272.77,388.89,285.11,388.86,297.44,388.87Z" transform="translate(-104.51 -227.82)"/><path class="cls-1" d="M163.55,612.56c-12.48,0-25,0-37.43,0-12.1,0-20.05-8-20.08-20.23s-.05-24.2,0-36.3c.08-18.5,13.14-32.08,31.66-32.92a8.2,8.2,0,0,1,3.57.84c14.82,6.74,29.55,6.6,44.48.14,2.61-1.13,6.1-.81,9.08-.38,13.12,1.85,24.92,14,25.62,27.42.74,14.18.9,28.42.52,42.62-.32,11.63-8.63,18.79-20.37,18.81C188.25,612.58,175.9,612.56,163.55,612.56Zm-.32-12.74c12.22,0,24.43,0,36.64,0,5.49,0,8.11-2.16,8.14-7,.07-13,.12-25.91-.11-38.87-.13-7.21-3.93-12.48-10.22-15.78-2.94-1.55-6-2.73-9.61-1.26-16.29,6.73-32.64,6.67-49,.16a10.16,10.16,0,0,0-5.73-.33c-9,2.22-14.44,9.6-14.52,19.66-.09,11.46,0,22.93,0,34.39,0,6.71,2.29,9,9,9C139.56,599.84,151.4,599.82,163.23,599.82Z" transform="translate(-104.51 -227.82)"/><path class="cls-1" d="M224.89,285.9c-4.26-2-8.09-3.7-11.86-5.54-4.05-2-5.57-5.38-4.06-8.79s5.21-4.7,9.19-2.94c8.09,3.56,16.14,7.2,24.12,11,4.11,1.95,5.34,5.14,3.44,9.26-4,8.7-8.18,17.33-12.44,25.91-1.83,3.68-5.48,4.88-8.75,3.25-3.06-1.51-4.21-5-2.79-8.69.54-1.39,1.26-2.71,1.88-4.07a8.12,8.12,0,0,0,.92-4.33c-4.5,3.15-9.2,6.05-13.47,9.47-28.62,22.93-46.26,52.38-52,88.7-1.13,7.11-1.35,14.36-2,21.56-.25,3-1.43,5.27-4.43,6.25-4.55,1.48-8.47-1.69-8.42-7.05A146.46,146.46,0,0,1,149,383.3q16.41-61.6,71.06-94.51Z" transform="translate(-104.51 -227.82)"/><path class="cls-1" d="M437.07,402.91c-8.05-49.17-33.62-85.76-78.47-108.48-1.78-.9-3.65-1.61-5.41-2.53-4-2.09-5.46-5.44-3.83-8.85s5.33-4.83,9.22-2.77c9,4.77,18.35,9.13,26.66,14.94,32,22.42,52.5,52.94,61.65,90.95,1.51,6.26,2.34,12.68,3.48,19l1.1,1c2.2-2.63,4.26-5.39,6.65-7.84,3.46-3.56,7.36-3.83,10.14-1s2.34,6.62-1.19,10.19q-8.43,8.51-16.93,16.92c-3.87,3.81-7.19,3.87-11,.12q-8.83-8.62-17.46-17.46c-3.35-3.43-3.46-7.15-.55-9.89,2.71-2.55,6.39-2.29,9.63.8,1.87,1.79,3.61,3.72,5.41,5.58Z" transform="translate(-104.51 -227.82)"/><path class="cls-1" d="M125.12,478.52c-.09-20.84,17.17-38.23,38.21-38.48,20.75-.24,38.4,17.24,38.48,38.13.09,21.1-17,38.5-37.94,38.57A38.54,38.54,0,0,1,125.12,478.52Zm38.42-25.47a25.32,25.32,0,0,0-25.42,25.35A25.64,25.64,0,0,0,163.48,504c13.77,0,25.5-11.66,25.55-25.49A25.65,25.65,0,0,0,163.54,453.05Z" transform="translate(-104.51 -227.82)"/><path class="cls-1" d="M431.63,516.74a38.35,38.35,0,0,1,.1-76.7c20.85-.05,38.26,17.28,38.44,38.27S452.82,516.77,431.63,516.74Zm.29-63.69a25.64,25.64,0,0,0-25.66,25.25c-.19,13.68,11.47,25.46,25.38,25.65s25.46-11.43,25.52-25.38A25.33,25.33,0,0,0,431.92,453.05Z" transform="translate(-104.51 -227.82)"/><path class="cls-1" d="M253.76,568.19c1.64,3.2,3,5.79,4.3,8.42,2.06,4.26,1.21,7.86-2.21,9.67s-6.91.51-9.18-3.74q-5.91-11-11.61-22.17c-2.64-5.18-1-9,4.53-10.68,7.72-2.37,15.49-4.61,23.26-6.82,4.44-1.26,7.88.38,9,4.14,1,3.38-1.06,6.57-5.29,8.11-1,.36-2,.76-3,1.14l-.05,1.1c8,1.17,15.94,2.85,24,3.41a138.28,138.28,0,0,0,61.89-9.35,30.23,30.23,0,0,1,4.25-1.41,6.45,6.45,0,0,1,7.39,3.68,6.32,6.32,0,0,1-2.57,7.84,46.77,46.77,0,0,1-6.18,2.58,141,141,0,0,1-59.22,10c-12-.62-23.83-3.41-35.74-5.23C256.37,568.71,255.43,568.5,253.76,568.19Z" transform="translate(-104.51 -227.82)"/></svg>