<svg id="Layer_1" data-name="Layer 1" xmlns="http://www.w3.org/2000/svg" viewBox="0 0 413.8 413.81"><defs><style>.cls-1{fill:#48b96c;stroke:#fff;stroke-miterlimit:10;stroke-width:5px;}</style></defs><path class="cls-1" d="M270.49,216.54h54.29c5.92,2.61,8.54,7.45,9.62,13.58a109.71,109.71,0,0,0,3.24,13.12,5.57,5.57,0,0,0,3.13,3.37,185.38,185.38,0,0,1,49.85,20.65,5,5,0,0,0,4.18-.07c4.66-2.54,9.12-5.45,13.71-8.12,6.78-4,11.76-3.42,17.26,2q16,15.87,31.89,31.89c5.22,5.28,5.78,10.11,2.09,16.58-2.7,4.73-5.71,9.29-8.27,14.09a5.42,5.42,0,0,0,0,4.51,187.58,187.58,0,0,1,20.48,49.49c.34,1.35,2.2,2.87,3.65,3.3,5.33,1.59,10.81,2.67,16.2,4.08,7,1.84,10.2,6,10.22,13.23q.06,22.56,0,45.1c0,7.55-3.14,11.59-10.41,13.48-5.26,1.37-10.52,2.8-15.85,3.85-2.51.49-3.53,1.72-4.1,4a169.72,169.72,0,0,1-20,48.35c-1.27,2.08-1.38,3.61,0,5.7,2.84,4.33,5.44,8.82,8,13.31,3.81,6.62,3.24,11.51-2.11,16.91q-15.87,16-31.9,31.89c-5.37,5.32-10.29,5.85-16.93,2-4.6-2.66-9-5.59-13.73-8.09a5.37,5.37,0,0,0-4.5-.1A187.64,187.64,0,0,1,341,595.22a5.9,5.9,0,0,0-3.36,3.59c-1.59,5.33-2.68,10.81-4.08,16.2-1.84,7-6,10.28-13.17,10.3q-22.74.06-45.5,0c-7.21,0-11.29-3.24-13.15-10.32-1.34-5.13-2.78-10.25-3.76-15.46-.52-2.79-1.76-4-4.44-4.65a176.66,176.66,0,0,1-51.38-22c-1.09-.69-2.26-1.26-3.62-2-10.25,10.27-20.35,20.47-30.54,30.58-5.47,5.43-10.76,11.11-16.68,16-15.06,12.47-37.5,9.83-49.92-5.33-4.34-5.3-6.41-11.5-8.15-17.91v-9.58c2-11.33,9-19.48,16.93-27.19,11.68-11.28,23-22.91,34.48-34.4,1-1,2-2.09,3-3.22-1.32-2.22-2.52-4.28-3.75-6.31-8.39-13.81-15.15-28.39-18.86-44.12-1.47-6.23-4.3-9.34-10.52-9.92-2.61-.24-5.13-1.36-7.75-1.77-6.14-1-11-3.69-13.58-9.6v-54.3c2.63-5.86,7.41-8.56,13.56-9.63a105.78,105.78,0,0,0,13.11-3.22,5.58,5.58,0,0,0,3.39-3.11A186.72,186.72,0,0,1,143.91,328a5.49,5.49,0,0,0-.19-4.51c-2.58-4.79-5.59-9.34-8.27-14.08-3.56-6.29-3-11.16,2-16.25q16.11-16.33,32.43-32.43c5.09-5,10-5.56,16.26-2,4.62,2.62,9.21,5.3,13.65,8.21,2.09,1.36,3.62,1.26,5.71,0a169.88,169.88,0,0,1,48.3-20c2.29-.56,3.62-1.5,4.08-4,.77-4.3,2.24-8.47,3-12.77C262,224,264.58,219.15,270.49,216.54Zm143.56,67.32c-4.29,2.57-8.62,4.9-12.67,7.65-6.17,4.18-11.88,4-18.06-.21a147.78,147.78,0,0,0-55.59-22.87c-6.52-1.27-10.28-5-11.67-11.44-1-4.54-2.23-9-3.18-13.56-.45-2.16-1.32-3.06-3.7-3q-11.56.24-23.15,0c-2.4,0-3.2.92-3.65,3.07-1,4.68-2.18,9.3-3.26,13.95-1.36,5.89-4.86,9.7-10.86,10.84a153.36,153.36,0,0,0-57.73,23.87c-5.1,3.44-10.15,3.34-15.3.13-3.95-2.45-7.92-4.88-12-7.13-.92-.51-2.8-.78-3.36-.24-6.59,6.33-13,12.83-19.49,19.32,2.82,4.73,5.22,9.18,8,13.36,4,5.94,3.76,11.49-.23,17.37a148.9,148.9,0,0,0-23.07,55.93c-1.23,6.34-4.84,10.13-11.08,11.55-4.78,1.1-9.6,2.1-14.3,3.48a4.28,4.28,0,0,0-2.45,3.12c-.21,7.84,0,15.7-.16,23.54,0,2.13.67,3.09,2.73,3.54,4.53,1,9,2.27,13.55,3.19,6.62,1.34,10,5.29,11.86,11.79,3.57,12.32,7.7,24.5,12.12,36.55,1.87,5.1,5.07,9.71,7.92,15,5.19-5.29,9.71-10.18,14.56-14.71,2.3-2.15,2.23-3.76.92-6.43-20.89-42.68-20.34-85,2.92-126.61,25.49-45.6,79.83-72.22,131.59-64.69,34.07,5,62.61,20.38,84.15,47.24,30.42,37.95,37.85,80.72,22.51,126.72-11,33.1-33.13,57.57-63.94,73.8-24.84,13.09-51.38,17.22-79.2,13.28a133.88,133.88,0,0,1-43-13.88c-1-.5-2.85-.74-3.44-.18-5.44,5.16-10.7,10.53-16.16,16,.83.56,1.24.88,1.68,1.15a156.16,156.16,0,0,0,49.54,19.06c6.67,1.35,10.47,5.16,11.8,11.78.91,4.55,2,9.08,3.32,13.52a4.31,4.31,0,0,0,3,2.57q12,.33,23.94,0a4.31,4.31,0,0,0,3.11-2.47c1.38-4.7,2.38-9.51,3.47-14.3,1.39-6.06,5-9.8,11.18-11A151.27,151.27,0,0,0,384,550.19c5.63-3.81,11-3.93,16.67-.23,4.43,2.88,9,5.46,13.72,8.24,6.43-6.44,12.69-12.59,18.74-18.94.72-.76.8-2.9.27-3.93a103.21,103.21,0,0,0-6.48-11c-4.15-6.07-3.73-11.7.35-17.7a148.21,148.21,0,0,0,22.88-55.58c1.26-6.53,5-10.31,11.4-11.71,4.53-1,9-2.22,13.55-3.2,2.09-.45,3.13-1.21,3.07-3.65q-.26-11.58,0-23.15c0-2.4-.9-3.22-3-3.68-4.54-.95-9-2.2-13.56-3.18-6.43-1.39-10.15-5.19-11.41-11.7a148.31,148.31,0,0,0-22.88-55.58c-4.07-6-4.49-11.61-.38-17.71,2.88-4.26,5.31-8.83,7.76-13ZM251.56,517.81c36.95,19.08,95.35,15.56,132.12-32.44,33-43,27.46-104.69-11.41-142-41.48-39.8-107.09-40.12-148.64-.41C183.38,381.43,184,435.81,201,467c4.92-5,9.62-10.07,14.68-14.78,2.38-2.22,2.71-4.2,1.82-7.22-6-20.15-5.12-40.1,4-59,13.72-28.51,36.66-44.95,68.22-48.49A78.81,78.81,0,0,1,333.11,345c8.33,4,10,12.9,3.81,19.79-.8.89-1.68,1.71-2.52,2.55q-14,14-27.93,28c-3.72,3.76-4.77,8.28-2.82,13.2a11.17,11.17,0,0,0,10.1,7.3c4.14.35,7.4-1.5,10.26-4.37q14.36-14.44,28.81-28.78c7.79-7.7,17-5.92,21.38,4.08a84.78,84.78,0,0,1,6.49,45.95c-4.83,37.69-37.73,70.93-80.17,72.05a86.21,86.21,0,0,1-27.9-3.79c-1.36-.42-3.6-.26-4.52.6C262.46,506.78,257.08,512.31,251.56,517.81ZM306.11,361.9c-17.65-2.29-32.33,1.94-45.27,12a58.74,58.74,0,0,0-18.32,69.46c3.46,8.19,2,14.09-4.28,20.28q-57.68,57.17-114.93,114.77a34.7,34.7,0,0,0-3.74,4.13,11.71,11.71,0,0,0,6.36,18.21c5.67,1.7,9.68-.93,13.44-4.7q58-58,116-116a35.66,35.66,0,0,1,4.45-4c3.05-2.2,6.43-3.07,10.14-1.72,2.62.95,5.25,1.87,7.87,2.81a55.21,55.21,0,0,0,31.36,2.29c25.34-5.78,41.17-21.56,46.95-46.92,1.4-6.15,2.39-12.64.3-19.59-4.16,4.16-7.84,8-11.66,11.65a113.9,113.9,0,0,1-9.45,8.55c-16.18,12.42-42.17,6.74-51.81-11.21-8.26-15.38-6-31.44,6.47-44.21C295,372.64,300.18,367.72,306.11,361.9Z" transform="translate(-90.74 -214.04)"/></svg>